<?xml version="1.0" encoding="UTF-8"?>
<!DOCTYPE svg PUBLIC "-//W3C//DTD SVG 1.1//EN" "http://www.w3.org/Graphics/SVG/1.1/DTD/svg11.dtd">
<!-- Creator: CorelDRAW -->
<svg xmlns="http://www.w3.org/2000/svg" xml:space="preserve" width="1.81408in" height="0.459835in" version="1.1" style="shape-rendering:geometricPrecision; text-rendering:geometricPrecision; image-rendering:optimizeQuality; fill-rule:evenodd; clip-rule:evenodd"
viewBox="0 0 419.7 106.39"
 xmlns:xlink="http://www.w3.org/1999/xlink"
 xmlns:xodm="http://www.corel.com/coreldraw/odm/2003">
 <defs>
  <style type="text/css">
   <![CDATA[
    .fil7 {fill:none}
    .fil0 {fill:#FEFEFE}
    .fil2 {fill:#373435}
    .fil10 {fill:#ED3237}
    .fil3 {fill:#0A9146}
    .fil4 {fill:#FEFEFE;fill-rule:nonzero}
    .fil5 {fill:#BDBFC1;fill-rule:nonzero}
    .fil8 {fill:#373435;fill-rule:nonzero}
    .fil1 {fill:#ED3237;fill-rule:nonzero}
    .fil11 {fill:#282829;fill-rule:nonzero}
    .fil13 {fill:#00AFEF;fill-rule:nonzero}
    .fil9 {fill:#00A859;fill-rule:nonzero}
    .fil12 {fill:#3E4095;fill-rule:nonzero}
    .fil6 {fill:#0A9146;fill-rule:nonzero}
   ]]>
  </style>
 </defs>
 <g id="Layer_x0020_1">
  <metadata id="CorelCorpID_0Corel-Layer"/>
  <g id="_1896105790688">
   <g>
    <path class="fil0" d="M51.26 4.4c27.94,0 50.59,22.68 50.59,50.66 0,27.98 -22.65,50.66 -50.59,50.66 -27.94,0 -50.59,-22.68 -50.59,-50.66 0,-27.98 22.65,-50.66 50.59,-50.66z"/>
    <path class="fil1" d="M51.26 3.73c14.16,0 26.97,5.75 36.25,15.03 9.28,9.29 15.01,22.12 15.01,36.3 0,14.17 -5.74,27.01 -15.01,36.3 -9.28,9.29 -22.09,15.03 -36.25,15.03 -14.16,0 -26.97,-5.75 -36.25,-15.03 -9.28,-9.29 -15.01,-22.12 -15.01,-36.3 0,-14.17 5.74,-27.01 15.01,-36.3 9.28,-9.29 22.09,-15.03 36.25,-15.03zm35.3 15.98c-9.03,-9.05 -21.52,-14.64 -35.3,-14.64 -13.79,0 -26.27,5.6 -35.3,14.64 -9.03,9.05 -14.62,21.54 -14.62,35.35 0,13.81 5.59,26.3 14.62,35.35 9.03,9.05 21.52,14.64 35.3,14.64 13.79,0 26.27,-5.6 35.3,-14.64 9.03,-9.05 14.62,-21.54 14.62,-35.35 0,-13.8 -5.59,-26.3 -14.62,-35.35z"/>
    <path class="fil2" d="M88.47 75.22l1.76 3.09 1.76 3.09 -3.51 0 -3.51 0 1.76 -3.09 1.76 -3.09zm2.61 0.97l-0.61 3.52 -0.61 3.52 -2.69 -2.3 -2.69 -2.3 3.3 -1.22 3.3 -1.22zm1.39 2.44l-2.69 2.3 -2.69 2.3 -0.61 -3.52 -0.61 -3.52 3.3 1.22 3.3 1.22z"/>
    <polygon class="fil0" points="84.48,78.63 86.35,78.97 86.18,78 "/>
    <polygon class="fil0" points="84.96,81.41 86.6,80.44 85.87,79.81 "/>
    <polygon class="fil0" points="87.09,83.22 87.73,81.41 86.77,81.41 "/>
    <polygon class="fil0" points="89.86,83.22 88.47,82.04 89.21,81.41 "/>
    <polygon class="fil0" points="91.98,81.41 90.17,81.41 90.34,80.44 "/>
    <polygon class="fil0" points="92.47,78.63 91.08,79.81 90.6,78.97 "/>
    <polygon class="fil0" points="85.87,76.19 87.57,76.82 87.09,77.67 "/>
    <polygon class="fil0" points="88.47,75.22 89.38,76.82 88.47,77.15 "/>
    <polygon class="fil0" points="91.08,76.19 89.86,77.67 90.76,78 "/>
    <polygon class="fil3" points="51.26,18.6 61.86,29.12 77.23,29.05 77.17,44.31 87.99,55.06 77.07,65.89 77.01,80.84 61.95,80.9 51.26,91.52 40.67,81 25.29,81.06 25.36,65.8 14.54,55.06 25.45,44.22 25.52,29.28 40.57,29.21 "/>
    <path class="fil0" d="M51.26 27.54c15.17,0 27.48,12.32 27.48,27.52 0,15.2 -12.3,27.52 -27.48,27.52 -15.17,0 -27.48,-12.32 -27.48,-27.52 0,-15.2 12.3,-27.52 27.48,-27.52zm0 6.5c11.59,0 20.99,9.41 20.99,21.02 0,11.61 -9.4,21.02 -20.99,21.02 -11.59,0 -20.99,-9.41 -20.99,-21.02 0,-11.61 9.4,-21.02 20.99,-21.02z"/>
    <path class="fil4" d="M51.26 27.44c7.61,0 14.51,3.09 19.5,8.09 4.99,5 8.08,11.9 8.08,19.52 0,7.62 -3.09,14.53 -8.08,19.53 -4.99,5 -11.88,8.09 -19.5,8.09 -7.61,0 -14.51,-3.09 -19.5,-8.09 -4.99,-5 -8.08,-11.9 -8.08,-19.53 0,-7.62 3.09,-14.53 8.08,-19.52 4.99,-5 11.88,-8.09 19.5,-8.09zm19.36 8.22c-4.95,-4.96 -11.8,-8.03 -19.36,-8.03 -7.56,0 -14.41,3.07 -19.36,8.03 -4.95,4.96 -8.02,11.82 -8.02,19.39 0,7.57 3.07,14.43 8.02,19.39 4.96,4.96 11.8,8.03 19.36,8.03 7.56,0 14.41,-3.07 19.36,-8.03 4.96,-4.96 8.02,-11.82 8.02,-19.39 0,-7.57 -3.07,-14.43 -8.02,-19.39zm-19.36 -1.72c5.82,0 11.09,2.36 14.91,6.18 3.81,3.82 6.17,9.1 6.17,14.93 0,5.83 -2.36,11.11 -6.17,14.93 -3.82,3.82 -9.09,6.18 -14.91,6.18 -5.82,0 -11.09,-2.36 -14.91,-6.18 -3.82,-3.82 -6.18,-9.1 -6.18,-14.93 0,-5.83 2.36,-11.11 6.18,-14.93 3.81,-3.82 9.09,-6.18 14.91,-6.18zm14.77 6.32c-3.78,-3.78 -9,-6.13 -14.77,-6.13 -5.77,0 -10.99,2.34 -14.77,6.13 -3.78,3.79 -6.12,9.02 -6.12,14.79 0,5.78 2.34,11.01 6.12,14.79 3.78,3.79 9,6.13 14.77,6.13 5.77,0 10.99,-2.34 14.77,-6.13 3.78,-3.78 6.12,-9.02 6.12,-14.79 0,-5.78 -2.34,-11.01 -6.12,-14.79z"/>
    <path class="fil5" d="M24.44 55.19c0.07,7.41 3.1,14.12 7.96,18.99 4.92,4.93 11.72,7.98 19.23,7.98 7.51,0 14.31,-3.05 19.23,-7.98 4.87,-4.87 7.9,-11.58 7.97,-19l-5.94 0.02c-0.07,5.77 -2.44,10.98 -6.23,14.77 -3.85,3.85 -9.16,6.24 -15.03,6.24 -5.87,0 -11.19,-2.38 -15.03,-6.24 -3.79,-3.8 -6.16,-9.03 -6.23,-14.81l-5.94 0.02z"/>
    <path class="fil6" d="M78.67 54.69c0,0.08 0.07,-0.05 0.07,0.03 0,7.67 -2.85,14.82 -7.87,19.85 -5.02,5.03 -11.96,8.14 -19.62,8.14 -7.66,0 -14.6,-3.11 -19.62,-8.14 -5.02,-5.03 -7.83,-12.06 -7.83,-19.73 0,-0.08 0,-0.08 0,-0.16l0.05 0 0.21 0 5.94 0 0.18 0 0.12 0.01c-0,0.08 -0.25,-0.09 0,0 0,5.73 2.57,11.14 6.32,14.89 3.75,3.75 8.93,6.07 14.64,6.07 5.72,0 10.9,-2.32 14.64,-6.07 3.75,-3.75 6.44,-9.18 6.44,-14.91 0,-0.08 0,0.08 0,0l0 0 6.17 0 0.17 0.02z"/>
    <path class="fil4" d="M78.64 54.81c-0.02,-0.01 -0.03,-0.01 -0.04,-0.03l-0.1 -0.01 -6.07 0c-0.01,2.73 -0.64,5.4 -1.7,7.84 -1.15,2.67 -2.82,5.08 -4.78,7.03 -1.92,1.92 -4.21,3.47 -6.76,4.52 -2.45,1.02 -5.14,1.58 -7.96,1.58 -2.82,0 -5.51,-0.56 -7.96,-1.58 -2.55,-1.06 -4.84,-2.6 -6.76,-4.52 -1.94,-1.94 -3.56,-4.32 -4.68,-6.96 -1.04,-2.46 -1.65,-5.14 -1.66,-7.9l-0.03 -0.02c-2.09,-0.01 -4.18,-0 -6.27,-0l-0 0.07c0,3.82 0.7,7.48 2.02,10.81 1.33,3.34 3.28,6.35 5.78,8.86 2.55,2.55 5.6,4.61 8.98,6.01 3.26,1.35 6.83,2.1 10.58,2.1 3.75,0 7.32,-0.75 10.58,-2.1 3.38,-1.4 6.43,-3.46 8.98,-6.01 2.5,-2.51 4.47,-5.55 5.8,-8.91 1.32,-3.33 2.03,-6.99 2.04,-10.78zm0.06 -0.21l0.03 -0c0.06,0 0.11,0.03 0.11,0.12 0,3.84 -0.71,7.56 -2.05,10.94 -1.35,3.39 -3.32,6.45 -5.85,8.98 -2.57,2.57 -5.63,4.64 -9.04,6.06 -3.28,1.36 -6.88,2.11 -10.65,2.11 -3.77,0 -7.37,-0.75 -10.65,-2.11 -3.41,-1.41 -6.48,-3.48 -9.04,-6.06 -2.52,-2.53 -4.49,-5.56 -5.83,-8.92 -1.33,-3.35 -2.03,-7.03 -2.03,-10.88l0 -0.26 6.43 0c0.04,-0.02 0.09,-0.02 0.18,0.01l0.08 0.01 -0 0.09c0,2.76 0.6,5.46 1.65,7.92 1.11,2.62 2.72,4.98 4.64,6.9 1.9,1.9 4.17,3.44 6.69,4.48 2.43,1.01 5.09,1.56 7.88,1.56 2.79,0 5.46,-0.56 7.88,-1.56 2.52,-1.05 4.79,-2.58 6.69,-4.48 1.94,-1.94 3.59,-4.33 4.74,-6.97 1.06,-2.45 1.68,-5.12 1.68,-7.86l0 -0.1c1.95,0 4.6,-0.17 6.46,0.02z"/>
    <path class="fil1" d="M51.26 15.81c10.82,0 20.62,4.39 27.71,11.49 7.09,7.1 11.48,16.91 11.48,27.75 0,10.84 -4.39,20.65 -11.48,27.75 -7.09,7.1 -16.89,11.49 -27.71,11.49 -10.82,0 -20.62,-4.39 -27.71,-11.49 -7.09,-7.1 -11.48,-16.91 -11.48,-27.75 0,-10.84 4.39,-20.65 11.48,-27.75 7.09,-7.1 16.89,-11.49 27.71,-11.49zm27.08 12.13c-6.93,-6.94 -16.51,-11.23 -27.08,-11.23 -10.58,0 -20.15,4.29 -27.08,11.23 -6.93,6.94 -11.22,16.53 -11.22,27.12 0,10.59 4.29,20.18 11.22,27.12 6.93,6.94 16.51,11.23 27.08,11.23 10.58,0 20.15,-4.29 27.08,-11.23 6.93,-6.94 11.22,-16.53 11.22,-27.12 0,-10.59 -4.29,-20.18 -11.22,-27.12z"/>
    <path class="fil7" d="M51.36 75.96c-11.66,0 -21.11,-9.32 -21.11,-20.82 0,-11.5 9.45,-20.82 21.11,-20.82 11.66,0 21.11,9.32 21.11,20.82 0,11.5 -9.45,20.82 -21.11,20.82z"/>
    <path class="fil4" d="M25.96 56.62l3.24 -0.39 0.13 1.07c0.05,0.4 0.06,0.67 0.04,0.79 -0.03,0.19 -0.11,0.36 -0.26,0.51 -0.15,0.15 -0.35,0.24 -0.61,0.27 -0.2,0.02 -0.37,0.01 -0.52,-0.05 -0.14,-0.06 -0.26,-0.14 -0.35,-0.24 -0.09,-0.1 -0.15,-0.21 -0.19,-0.32 -0.05,-0.16 -0.09,-0.38 -0.13,-0.68l-0.05 -0.43 -1.22 0.15 -0.08 -0.67zm2.78 0.34l-0.92 0.11 0.04 0.36c0.03,0.26 0.07,0.43 0.11,0.52 0.05,0.08 0.11,0.15 0.18,0.19 0.08,0.04 0.17,0.06 0.26,0.04 0.12,-0.01 0.21,-0.06 0.28,-0.14 0.07,-0.08 0.11,-0.17 0.11,-0.28 0,-0.08 -0.01,-0.24 -0.04,-0.48l-0.04 -0.32zm-2.28 3.13l3.18 -0.75 0.56 2.39 -0.54 0.13 -0.41 -1.73 -0.71 0.17 0.38 1.61 -0.54 0.13 -0.38 -1.61 -0.86 0.2 0.42 1.8 -0.54 0.13 -0.58 -2.45zm1.87 2.83l0.3 0.59c-0.19,0.11 -0.31,0.24 -0.36,0.39 -0.05,0.15 -0.04,0.32 0.03,0.51 0.08,0.2 0.18,0.33 0.3,0.4 0.12,0.07 0.24,0.08 0.35,0.04 0.07,-0.03 0.13,-0.07 0.16,-0.14 0.03,-0.06 0.05,-0.15 0.04,-0.27 -0,-0.08 -0.02,-0.26 -0.06,-0.55 -0.05,-0.36 -0.04,-0.64 0.03,-0.82 0.09,-0.25 0.26,-0.43 0.5,-0.52 0.15,-0.06 0.32,-0.07 0.49,-0.04 0.17,0.04 0.32,0.12 0.46,0.27 0.14,0.14 0.25,0.33 0.34,0.56 0.15,0.39 0.18,0.71 0.09,0.97 -0.09,0.26 -0.28,0.45 -0.56,0.57l-0.26 -0.62c0.15,-0.09 0.24,-0.19 0.27,-0.3 0.04,-0.11 0.02,-0.26 -0.05,-0.43 -0.07,-0.18 -0.16,-0.31 -0.27,-0.38 -0.07,-0.05 -0.15,-0.06 -0.23,-0.02 -0.07,0.03 -0.12,0.08 -0.15,0.16 -0.04,0.1 -0.03,0.32 0.02,0.65 0.05,0.33 0.06,0.58 0.04,0.76 -0.02,0.17 -0.08,0.33 -0.18,0.46 -0.1,0.13 -0.25,0.24 -0.44,0.31 -0.17,0.07 -0.36,0.08 -0.55,0.04 -0.19,-0.04 -0.36,-0.13 -0.5,-0.29 -0.14,-0.15 -0.27,-0.36 -0.37,-0.63 -0.15,-0.39 -0.18,-0.72 -0.08,-1 0.1,-0.28 0.31,-0.5 0.63,-0.68zm1.98 6.34l-0.37 -0.62 0.49 -0.62 -0.68 -1.14 -0.78 0.14 -0.36 -0.61 3.47 -0.56 0.36 0.61 -2.13 2.81zm0.49 -1.72l0.81 -1.01 -1.27 0.23 0.46 0.78zm-0.01 2.34l2.54 -2.06 0.41 0.5 -0.84 2.44 1.7 -1.38 0.39 0.48 -2.54 2.06 -0.42 -0.52 0.82 -2.4 -1.67 1.35 -0.39 -0.48zm3 3.36l1.87 -1.97 -0.71 -0.68 0.38 -0.4 1.91 1.81 -0.38 0.4 -0.71 -0.67 -1.87 1.97 -0.49 -0.46zm1.89 1.65l1.88 -2.67 1.15 0.81c0.29,0.2 0.48,0.38 0.58,0.52 0.1,0.14 0.14,0.3 0.13,0.48 -0.01,0.18 -0.07,0.35 -0.18,0.5 -0.14,0.2 -0.32,0.32 -0.53,0.37 -0.21,0.05 -0.45,0 -0.71,-0.13 0.07,0.15 0.11,0.29 0.13,0.43 0.02,0.14 0.02,0.35 0,0.65l-0.04 0.75 -0.65 -0.46 0.02 -0.86c0.01,-0.31 0,-0.51 -0.01,-0.6 -0.01,-0.09 -0.04,-0.17 -0.09,-0.23 -0.04,-0.06 -0.13,-0.14 -0.25,-0.22l-0.11 -0.08 -0.79 1.11 -0.55 -0.39zm1.63 -1.15l0.41 0.29c0.26,0.19 0.43,0.29 0.51,0.31 0.08,0.02 0.16,0.02 0.23,-0 0.08,-0.03 0.14,-0.08 0.2,-0.16 0.06,-0.09 0.09,-0.18 0.08,-0.27 -0.01,-0.09 -0.05,-0.17 -0.13,-0.25 -0.04,-0.04 -0.17,-0.13 -0.39,-0.29l-0.43 -0.3 -0.48 0.68zm1.49 3.25l1.42 -2.94 2.21 1.06 -0.24 0.5 -1.61 -0.77 -0.31 0.65 1.49 0.72 -0.24 0.5 -1.49 -0.72 -0.39 0.8 1.67 0.8 -0.24 0.5 -2.27 -1.09zm3.17 1.51l1.02 -3.1 0.62 0.2 0.61 2.51 0.68 -2.08 0.59 0.19 -1.02 3.1 -0.64 -0.21 -0.61 -2.46 -0.67 2.04 -0.59 -0.19zm4.86 1.36l0.39 -3.24 1 0.12 0.33 2.28 0.85 -2.14 1 0.12 -0.39 3.24 -0.61 -0.07 0.3 -2.55 -0.95 2.48 -0.64 -0.08 -0.34 -2.63 -0.3 2.55 -0.62 -0.07zm4.16 -2.88l0.67 -0.02 0.06 1.77c0.01,0.28 0.02,0.46 0.04,0.54 0.03,0.13 0.1,0.24 0.21,0.32 0.11,0.08 0.26,0.11 0.44,0.11 0.19,-0.01 0.33,-0.05 0.42,-0.13 0.09,-0.08 0.15,-0.18 0.16,-0.29 0.02,-0.11 0.02,-0.3 0.01,-0.56l-0.06 -1.81 0.67 -0.02 0.06 1.72c0.01,0.39 0,0.67 -0.03,0.83 -0.03,0.16 -0.09,0.3 -0.19,0.42 -0.09,0.11 -0.22,0.21 -0.38,0.28 -0.16,0.07 -0.37,0.11 -0.63,0.12 -0.32,0.01 -0.55,-0.02 -0.72,-0.08 -0.16,-0.07 -0.3,-0.16 -0.39,-0.27 -0.1,-0.11 -0.16,-0.23 -0.2,-0.36 -0.05,-0.19 -0.08,-0.46 -0.09,-0.83l-0.06 -1.74zm3.87 3.03l-0.6 -3.21 0.66 -0.12 0.24 1.27 1.28 -0.24 -0.24 -1.26 0.66 -0.12 0.6 3.21 -0.66 0.12 -0.26 -1.4 -1.28 0.24 0.26 1.4 -0.66 0.12zm6.52 -1.72l-0.69 0.22 -0.5 -0.62 -1.26 0.41 -0.03 0.79 -0.67 0.22 0.21 -3.5 0.67 -0.22 2.27 2.7zm-1.57 -0.85l-0.81 -1.01 -0.05 1.29 0.86 -0.28zm2.27 0.51l-1.57 -2.86 0.88 -0.48 1.59 1.67 -0.56 -2.24 0.88 -0.48 1.57 2.87 -0.54 0.3 -1.24 -2.25 0.66 2.57 -0.57 0.31 -1.8 -1.94 1.23 2.26 -0.54 0.3zm3.72 -2.12l-2.01 -2.58 0.79 -0.62 1.84 1.39 -0.91 -2.12 0.8 -0.62 2.01 2.58 -0.49 0.38 -1.58 -2.03 1.07 2.43 -0.51 0.4 -2.09 -1.63 1.58 2.03 -0.49 0.38zm5.39 -4.86l-0.51 0.51 -0.73 -0.32 -0.94 0.94 0.33 0.72 -0.5 0.5 -1.41 -3.21 0.5 -0.5 3.25 1.36zm-1.78 -0.04l-1.18 -0.52 0.54 1.17 0.64 -0.64zm-0.43 -2.57l0.72 -0.98c0.16,-0.22 0.3,-0.38 0.42,-0.47 0.16,-0.12 0.34,-0.2 0.54,-0.22 0.2,-0.03 0.4,-0.01 0.61,0.06 0.21,0.07 0.44,0.19 0.69,0.37 0.22,0.16 0.38,0.32 0.5,0.49 0.14,0.21 0.23,0.42 0.26,0.63 0.02,0.16 -0,0.34 -0.07,0.53 -0.05,0.15 -0.15,0.32 -0.29,0.52l-0.74 1.01 -2.63 -1.93zm0.84 -0.21l1.74 1.28 0.29 -0.4c0.11,-0.15 0.18,-0.26 0.21,-0.34 0.04,-0.1 0.06,-0.2 0.05,-0.3 -0.01,-0.1 -0.06,-0.2 -0.15,-0.33 -0.09,-0.12 -0.24,-0.26 -0.44,-0.41 -0.2,-0.15 -0.37,-0.25 -0.51,-0.29 -0.13,-0.04 -0.26,-0.05 -0.37,-0.03 -0.11,0.02 -0.21,0.07 -0.31,0.16 -0.07,0.06 -0.19,0.2 -0.35,0.42l-0.18 0.24zm3.84 -0.98l-2.91 -1.48 0.3 -0.6 2.91 1.48 -0.3 0.6zm1.14 -2.34l-1.28 -0.51 -2.21 0.42 0.29 -0.73 1.49 -0.24 -0.92 -1.19 0.29 -0.71 1.31 1.83 1.27 0.51 -0.25 0.62zm1.58 -4.95l-0.2 0.7 -0.79 0.07 -0.36 1.28 0.64 0.47 -0.19 0.68 -2.8 -2.12 0.19 -0.68 3.5 -0.39zm-1.58 0.83l-1.29 0.12 1.04 0.76 0.25 -0.87zm1.65 -1.62l-3.24 -0.39 0.08 -0.67 1.28 0.15 0.16 -1.3 -1.28 -0.15 0.08 -0.67 3.24 0.39 -0.08 0.67 -1.42 -0.17 -0.16 1.3 1.42 0.17 -0.08 0.67z"/>
    <path class="fil0" d="M61.02 57.95l1.41 0.03 -1.59 5.7 0.24 5.22 0.74 0 0 2.14 -9.64 0 0.16 -13.91 1.63 -0.42 2.01 2.8 0 0.65c-0.13,-0.06 -0.27,-0.07 -0.42,-0.01 -2.24,0.84 -2.1,9.13 0.88,9.13 1.19,0 2.33,-1.28 2.33,-3.29 0,-1.39 -0.73,-2.38 -1.63,-2.23l0 -1.05 2.92 0 0.97 -4.77z"/>
    <path class="fil0" d="M41.5 57.95l-1.41 0.03 1.59 5.7 -0.24 5.22 -0.74 0 0 2.14 9.64 0 0 -13.89 -1.79 -0.44 -2.02 2.81 0.01 0.65c0.13,-0.06 0.27,-0.07 0.42,-0.01 2.24,0.84 2.1,9.13 -0.88,9.13 -1.19,0 -2.33,-1.28 -2.33,-3.29 0,-1.39 0.73,-2.38 1.63,-2.23l0 -1.05 -2.92 0 -0.97 -4.77z"/>
    <g>
     <path class="fil0" d="M52.21 37.54l0.59 0.77 -1.49 12.26 0.01 -0.04 1.73 -10.8 0.45 0.59 -2.15 10.11 0.04 -0.13 2.27 -9.22 0.22 0.26 0.29 -0.1 -2.49 8.2 2.95 -8.83 0.69 -0.29 -3.89 9.97 -0.05 0.16 4.88 -11.23 0.9 -0.37 -5.81 11.7 -0.04 0.13 0.09 -0.08 0.8 -13.03zm-0.76 13l0.03 -0.03 -0.03 0.03zm0.09 -0.08l0.07 -0.06 -0.07 0.06zm0.22 -0.2l0.2 -0.18 -0.2 0.18zm1.55 -1.36l6.03 -5.31 0.74 0.09 -8.06 6.42 1.29 -1.2zm-1.6 1.44l-0.09 0.07 0.09 -0.07zm-0.18 0.14l-0.04 0.03 0.04 -0.03zm-0.08 0.07l-0.02 0.02 0.02 -0.02zm-0.05 0.04l-0.08 0.07 -0 0.01 0.08 -0.06 0.01 -0.01zm0.01 -0l0.02 -0.02 -0.02 0.02zm0.05 -0.04l0.03 -0.02 -0.03 0.02zm0.09 -0.07l0.06 -0.04 -0.06 0.04zm0.22 -0.16l9.67 -7.12 0.97 0.12 -10.79 7.14 0.15 -0.14zm-0.24 0.2l-0.04 0.02 0.04 -0.02zm-0.08 0.05l-0.02 0.02 0.02 -0.02zm-0.05 0.03l-0.02 0.01 0.02 -0.01zm-0.03 0.02l-0.07 0.05 -0.02 0.05 0.09 -0.1zm-0.09 0.1l-0 0 0 -0zm-0 0l-0.01 0.03 0 -0.03 0.01 -0zm-0.01 -0l0 -0 -0 0zm0 -0l0 -0.04 -0.02 0.01 -0.01 0.02 -0 0.01 0 0 0.03 -0.01zm-0.02 -0.03l-0 0 -0.01 0.02 -0 0.01 -0.01 -0.03 -0 -0 0.01 0.03 0.01 -0.03zm-0.01 0.03l0 -0.01 0.01 -0.02 -0.01 0.01 0 0 0 0 0 0 0 0 0.01 -0.01 0 -0 -0.01 0.01 0 0 0 0 0 0 -0.01 -0.01 0 -0 0.01 0.01 0.01 -0.01 0.03 -0.09 0.91 -13.06 -0.95 13.19zm0.09 -0.2l-0.02 0.04 0.01 -0.04 0.02 -0.06 -0.02 0.06zm0.35 14.96l-0.44 0.64 -0.44 -0.64 0.41 -14.57 0 -0.01 0 -0 0 -0.01 0 -0 0 -0.01 0 -0.01 0 -0.01 0 0 0 -0.01 0 -0.01 0 0 0 -0 0 -0.01 0 -0 -0 0 0 0 -0 0.01 0 0 -0 0.01 -0 0.01 0 0.01 -0 0.01 0 0 -0 0.02 -0.44 0 -0.91 13 -0.15 -0.7 1.48 -12.22 0 -0.04 0 -0.01 0 -0.01 0 -0.01 0 -0.02 0 -0 0 -0.01 0 -0.02 0 -0.01 0 -0 0 -0.01 0 -0 -0 0 -0 0 -0 0.01 -0.01 0.03 -0 0.02 -0 0.03 -0.01 0.05 -0.02 0.15 -1.71 10.65 -0.45 -0.59 2.13 -10.01 0.02 -0.1 0.01 -0.04 0.01 -0.02 0.01 -0.03 0.01 -0.04 0 -0.01 0 -0.02 0.01 -0.04 0 -0.02 0 -0.01 0 -0 -0 0 -0 0.01 -0.02 0.08 -0.01 0.05 -0.02 0.06 -0.04 0.17 -2.27 9.21 -0.22 -0.26 -0.29 0.1 2.48 -8.17 0.26 -0.86 0.05 -0.16 0.03 -0.1 0.04 -0.13 0 -0.01 -0.08 0.06 0.01 -0.01 0.08 -0.06 0.02 -0.06 -0.04 0.01 0 -0 0.03 -0.01 0 -0 -0.03 0.01 0 -0 0.03 -0 0 -0 -0.03 0 0 -0 0.03 -0 0.01 -0.03 -0.03 0.01 0 -0 0.03 -0.01 0 0 -0.02 0.01 0 -0.01 0 0 0 0 0 0 0 0 0 0 0 0 0 0 -0 -0.01 0.02 0.01 0 0 0 0 0 -0 0 0 -0 0 0 0 0 0 0 0 -0 0 0 0.03 0.03 -0 -0.03 0 0 0 0.03 -0 -0.03 0.01 0 0.01 0 0.03 0.01 -0.01 -0 0 -0.01 0.01 0 0 0 0.01 0 0 0 0 0 0.01 0 0.01 0 0 0 0.01 0 0 0 0.02 0 0 0 0.02 0.46 14.57zm-0.47 -14.65l0 -0.02 0 -0.02 -0 0 -0 0.03 -0 0.02 0 -0zm0 -0.04l0 -0 -0 0 0 0 0 -0zm0 -0l0 -0 -0 0 0 0 0 0zm0 -0l0 -0.03 0 0 -0 0.03 0 0zm0 -0.03l0 0 0 0 0 0 0 0zm0 0.03l0 0 0.03 -0.01 0 0 0 0 0 0 0 0 0 0 0 0 0 0 0 0 0 0 -0.03 0zm-0.01 0.05l0 -0 0.01 -0.04 -0 0 -0.01 0.05 0 -0zm0.01 -0.05l0 -0 -0 0 0 0 0 0zm0 -0l0 -0 -0 0 -0 0 0 0zm0 -0l0 -0.03 0 0 -0 0.03 0 0zm0 -0.03l0 0 0 0 0 0zm-0.02 0.09l0.01 -0.05 -0 0 -0.01 0.05 0 -0zm0.01 -0.05l0 -0 -0 0 -0 0 0 0zm0 -0l0 -0 -0 0 0 0 0 0zm0 -0l0.01 -0.03 0 0 -0.01 0.03 0 0zm0.01 -0.03l0 0 0 0 0 0 0 0zm0 0l0 -0 0 0 0 0 0 -0 0 0 0 0 0 -0 0 0 0 0zm0 0l0 0 0 0zm1.54 13.15l0.28 -0.75 -1.49 -12.26 -0.25 0.02 -0 -0.02 0.01 0.02 0 0.03 0.01 0.05 1.73 10.8 0.45 -0.59 -2.15 -10.11 -0.02 -0.1 -0.01 -0.04 -0 -0 0.02 0.04 0.02 0.06 0.04 0.17 2.27 9.22 0.22 -0.26 0.29 0.1 -2.49 -8.2 -0.26 -0.85 -0.05 -0.15 0.01 0.02 3.15 9.19 -0.19 -0.22 -3 -9.09 -0.04 -0.13 0 -0 -0 -0.01 -0 -0 -0 -0 -0 -0 0 -0 -0 -0 -0 -0.01 -0.01 -0.04 0 -0 -0 -0 -0 -0 0 -0 0 -0 -0 -0 0 0 0 0 -0.01 -0.03 0 0.03 0 0 0 0 0 0 0 0 0 0 0 0 0 0 0 0 0 0 0 0.03 0 0 0 0 0 0 0 0 0 0 0 0 0 0 0 0 0 0.01 0 0.01 -0.02 -0.04 -0 -0 -0 -0 -0 -0 -0.02 -0.03 0 0 0 0 0 0 0 0 0 0 0.01 0.03 0 0 0 0 0 0 0.02 0.06 0 0.01 0.56 -0.05 0.91 13.07zm-1.46 -13.03l-0 -0.03 0 -0 -0 -0 0 -0 0 -0 0 -0 -0 -0 0 -0 0 0 -0 -0.04 0 -0 0 0 -0 -0 0 -0 0 0 0 -0 0 0 0 -0 0 0 -0 -0.03 0 0.03 0 0 0 0 0 0 0 0 0 0 0 0 0 0 0 0 0 0 0.01 0.04 0 0 0 0 0 0 0 0 0 0 0 0 0 0 0 0 0.01 0.04 0 0 -0.01 -0.01zm0.02 0.04l-0 -0.02 -0.01 -0.05 -0 -0.01 0 -0 0 -0 -0 0 0 -0 -0 -0 0 -0 -0.01 -0.04 -0 -0 0 0 0 -0 -0 -0 0 0 0 -0 0 0 -0 -0 0 0 -0.01 -0.03 0.01 0.03 0 0 0 0 0 0 0 0 0 0 0 0 0 0 0.01 0.03 0 0.01 0 0.01 0 0 0 0 0 0 0 0 0 0 0 0 0.02 0.08 0 0 -0.01 -0.01 -0 -0.01zm14.9 -0.59l0.65 0.43 -0.65 0.43 -14.76 -0.4 -0.02 -0 -0.03 -0 -0.01 0 -0.02 -0 -0.01 0 -0.01 0 -0.01 0 -0.01 -0 -0 0 -0 0 -0 0 -0 0 -0 0 -0 0 -0 0 -0.03 -0 14.92 -0.46zm-14.92 0.46l-0 0 0 0zm-0 0l-0 0 0 0zm-0 0l-0.01 0 -0.03 -0 0 0 0 0 0.03 0zm-0.03 -0l0.03 -0 0 0 -0.03 0zm0.03 -0l0 0 -0 0zm0 0l0 0 -0 0zm0 0l0.03 -0 0 0 0 0 0 0 0 -0 0 0 0.01 0 0 0 0.01 0 0.01 0 0.01 -0 0.01 0 0.02 -0 0.02 0 14.8 -0.46 -14.92 0.46zm13.39 0.91l-0.78 0.58 -12.3 -1.45 -0.03 -0 -0.09 -0.01 -0.03 -0 -0.03 -0 -0.02 -0 -0.02 -0 -0.01 -0 -0.01 -0 0 0 -0.01 -0 -0 0 -0 -0 -0 0 -0 -0 -0 0 -0 -0 -0 0 -0.03 -0 13.39 0.9zm-13.39 -0.9l-0 0 0 0zm-0 0l-0 -0 0 0zm-0 -0l-0.02 -0 -0 0 0 0 -0.01 -0 0.01 0 0 0 0 0 0 0 0.02 0 0 -0zm0 0l0 0 -0 0zm0 0l0 0 -0 -0zm0 0l0.03 0.01 0 0 0 0 0 0 0 0 0 0 0 0 0.01 0 0 0 0.02 0 0.01 0 0.02 0 0.03 0 0.05 0.01 0.05 0.01 0.18 0.03 10.74 1.67 -0.6 0.44 -9.3 -1.91 -0.85 -0.17 -0.13 -0.03 -0.1 -0.02 -0.04 -0.01 -0.04 -0.01 -0.02 -0 -0.02 -0 -0.01 -0 -0.01 -0 -0 -0 -0.01 -0 -0 -0 -0 -0 -0 -0 -0 -0 -0.04 -0.01 0 -0zm-0 0l-0 0 0 0zm-0 -0l-0 0 0 0 0 0zm-0 0l-0.02 -0 -0.01 -0 0 0 0 0 -0.01 -0 0 0 0.03 0.01zm-0.03 -0.01l0.03 0 -0.03 -0zm0.03 0l0 0 -0 -0zm0 0l0 0 -0 0zm0 0l0.03 0 0 0 0 0 0 0 0 0 0 0 0 0 0 0 0.01 0 0.01 0 0.01 0 0.01 0 0.02 0 0.02 0 0.05 0 0.03 0 13.18 0.89 -13.39 -0.9zm-0.04 -0l0 0 0 0zm13.43 -0.97l-0.78 -0.58 -12.31 1.45 -0.02 0 -0.09 0.01 -0.01 0 -0.01 0 -0.02 0 -0.03 0 -0 0 -0.02 0 -0.01 0 -0 0 -0.01 0 -0.01 0 0 0 -0 0 -0 0 -0 0 -0 0 -0 0 -0 0 -0 0 -0 0 -0 0 -0 0 -0.02 0 -0 0 -0.01 0 -0 0 0 -0 0 0 0.03 -0.01 0 0 0 -0 0 0 0 -0 0 0 0 -0 0 0 0 0 0 -0 0.01 -0 0 0 0 0 0.02 -0 0.01 -0 0.01 -0 0.01 -0 0 0 0.03 -0 0.05 -0.01 0.05 -0.01 0.01 -0 0.02 -0 0.15 -0.02 10.75 -1.67 -0.6 -0.44 -9.32 1.92 -0.79 0.16 -0.03 0.01 -0.02 0 -0.13 0.03 -0.1 0.02 -0.04 0.01 -0.01 0 -0.02 0 -0.01 0 -0.02 0 -0.02 0 -0.01 0 0 0 -0.01 0 -0 0 -0 0 0 0 -0 0 -0 0 -0 0 -0 0 -0 0 0 0 -0.04 0.01 -0 0 0.01 -0.05 -0 0 -0.01 0.05 -0 0 0.01 -0.05 -0 0 -0 0.04 -0 0 -0.02 0 -0.01 0 -0 0 -0.01 0 0.01 0 0.02 -0 0 0 -0 0.03 0.01 -0.03 0 -0 0.03 -0 0 0 0 0 0 0 0 0 0 -0 0 0 0 0 0 0 0 0 0.01 -0 0.01 0 0.01 -0 0.01 0 0.01 -0 0 0 0.02 -0 0.01 -0 0.01 0 0.01 -0 0.04 -0 0.01 -0 13.2 -0.89zm-13.39 0.9l-0 0 0 -0 0 0 0 0zm-0 0l-0 0 -0.02 0 -0.01 0 0.01 -0 0 0 0 -0 0.02 -0 0 0 -0 0zm0 0l0 0 -0.01 0.03 0 -0.03zm7.09 -12.95l0.71 -0.34 0.06 0.77 -7.66 12.28 -0.03 0.05 -0.02 0.03 -0.01 0.02 -0.01 0.02 -0.01 0.02 -0.05 0.08 7.05 -12.94zm-7.05 12.94l-0 0 0 -0zm-0 0.01l-0.01 0.01 -0 0 -0 0 -0 0 -0 0 -0 0 -0 0 -0 0 0 0 0 0 -0 0 -0 0 -0 0 0 -0 0 -0 0 -0 0 -0 0 0 0 -0 0 -0 0 -0 0 -0 0 -0 0 -0 0 -0.01 0.01 -0.01 -0 0zm0.01 -0l0 -0 -0 0zm0.01 -0.01l0.08 -0.1 0.02 -0.03 0.02 -0.03 0.02 -0.03 0.05 -0.06 0.07 -0.09 7.34 -9.65 -0.12 -0.95 -7.21 10.56 -0.13 0.19 -0.03 0.04 -0.02 0.02 -0.02 0.02 -0.02 0.03 -0.06 0.09 0 -0zm-0.01 0.01l-0 0 0 -0zm-0.01 0.01l-0.01 0.01 -0 0 -0 0 -0 0 0 0 -0 0 -0 0 -0 0 0 0 -0 0 0 0 -0 0 -0 0 0.02 -0.04zm-0.02 0.04l0 -0 0 -0 0 -0 0 -0 0 -0 0 -0 0 -0 0 -0 0 -0 0 -0 0 -0 0.01 -0.01 -0.02 0.04zm0.02 -0.04l0 -0 -0 0zm0 -0.01l0.04 -0.07 0.01 -0.02 0.01 -0.02 0.01 -0.01 0.01 -0.02 0.07 -0.13 6.9 -12.67 -7.05 12.94zm7.11 -8.64l0.09 0.73 -6.57 7.24 -0.2 0.22 -0.14 0.15 -0.06 0.07 -0.05 0.06 -0.03 0.03 -0.13 0.14 7.09 -8.64zm-7.1 8.64l-0 0 0 -0zm-0.01 0.01l-0 0 0.01 -0 0 -0 -0 0zm0.01 -0l0 -0 -0 0zm0.01 -0.01l0.19 -0.19 0.07 -0.08 0.09 -0.09 0.25 -0.26 6.33 -6.54 0.06 0.33 0.3 0.05 -5.34 4.97 -1.29 1.2 -0.24 0.22 -0.15 0.14 -0.27 0.25 -0.01 0zm0 0l-0 0 0 -0zm-0 0l0.01 -0 -0.01 0zm0.02 -0.01l12.63 -7.71 0.78 0.05 -0.34 0.7 -13.05 6.96 -0.02 0zm0 0.01l-0.01 0.01 0.01 -0.01zm-0.02 0.01l-0.01 0.01 -0.01 0.01 0 0 -0.01 0.01 -0 0 0.06 -0.02 -0.03 0zm0.06 -0.01l0.03 -0.01 -0.03 0.01zm0.08 -0.03l10.39 -3.93 -0.3 0.68 -10 3.23 -0.1 0.02zm-0 0.01l-0.04 0.01 0.04 -0.01zm-0.08 0.03l-0.09 0.03 -0 0 0 0 -0 0 -0 0 -0 0 -0 0 0 -0 0 -0 0 -0 0 0 0 -0 0 -0 0 0 0.09 -0.03zm-0.08 0.02l-0 0 -0 0 -0 0 -0 0 0 -0 0 -0 0 -0 0 0 0 -0 -0 0zm-0.02 0.02l0 -0 0 -0 0 -0 0 -0 0 -0 0 -0 -0 0 -0.01 0.01zm0.01 -0.01l-0 0 0 0zm-0 0l-0.03 0.01 0 0 0 0 0 0 0.03 -0.01 -0 0zm0 -0l0 0 -0 0zm0 -0l0 0 0 -0 0 0 0 -0 0 -0 -0 0 -0.01 0.01zm0 -0.01l-0 0 0 -0zm-0 0l-0.03 0.02 0 0 0 0 0 0 0 0 0 0 0 0 0 0 0 0 0 0 0 0 0 0 0 0 0 0 0 0 0.03 -0.02 -0 0zm0 -0.01l0 -0 -0 0zm0.01 -0l0 -0 0.01 -0.01 -0.01 0.01zm0.01 -0.01l0 -0 -0 0zm0.01 -0.01l0.09 -0.11 0.03 -0.03 0.03 -0.04 0.03 -0.04 0.07 -0.08 0.36 -0.44 6.48 -7.89 -7.1 8.64zm-0.04 0.05l0 0.01 0 0 -0.01 -0.01 0.01 0.01 0 0 -0.01 -0.01zm0 -0.16l-0.01 0.02 0 -0.02 0.01 -0.03 -0 0.03zm-0.02 0.04l-0.02 0.05 -0 0 0.03 -0.07 -0 0.01zm-0.02 0.06l-0 0 -0 0 0 -0 0 -0zm-0 0l-0.01 0.02 -0 0.01 0.01 -0.03zm0 -0l0 -0 0.02 -0.02 0 0 -0.02 0.01zm0 -0l0.02 -0.04 -0 0.02 -0.02 0.02zm0.03 -0.05l0.01 -0.01 -0.01 0.04 -0 0 0 -0.03zm0.02 -0.04l0.01 -0.02 -0.02 0.08 -0 0 0.01 -0.06zm12.05 -5.66l-0.38 0.89 -11.54 4.87 11.92 -5.75zm-11.96 5.77l-0.02 0.01 0.02 -0.01zm-0.04 0.02l-0.05 0.02 0.05 -0.02zm-0.05 0.02l-0 0 0 0zm-0 0l-0 0 0 -0zm-0 0l-0 0 0 0zm-0 0l-0.03 0.01 0 0 0.03 -0.01zm-0.03 0.01l0 0 0 0 0 0 0 0 0 0 0 0 0 0zm0 0l0 0 0 0zm0 0l0 0 0.03 -0.02 -0.03 0.02zm0.03 -0.02l0 -0 -0 0zm0 -0l0 -0 -0 0zm0.01 -0l0 -0 -0 0zm0.01 -0l0.03 -0.01 -0.03 0.01zm0.04 -0.02l0.01 -0.01 -0.01 0.01zm0.04 -0.02l11.96 -5.76 -11.96 5.76zm9.58 -2.75l-0.12 0.32 0.24 0.19 -8.56 2 8.45 -2.51zm-9.28 2.71l-0.15 0.04 0.15 -0.04zm-0.25 0.06l-0.16 0.04 0.16 -0.04zm-0.16 0.04l0 0 0 0zm-0 0l-0 0 0 0zm-0 0l-0 0 0 0zm-0 0l-0.03 0.01 0 0 0.03 -0.01zm-0.03 0.01l0 0 0 0zm0 0l0 0 0 0 0 0zm0 0l0 0 0.03 0.02 0 0.01 -0.04 -0.03zm0.04 0.03l0 0 -0 -0zm0 0.01l0 0 -0 -0zm0 0.01l0.05 0.09 0 0 0 0 0.01 0.01 0 0.01 0 0.01 0 0.01 0.01 0.02 1.75 8.67 1.39 0.71 0.09 0.61 -3.2 -9.95 -0.01 -0.02 -0.01 -0.01 -0 -0 -0.01 -0.01 -0.01 -0.02 -0 -0 -0 -0 -0.06 -0.1 -0 -0zm0 -0l-0 -0 0 0zm-0 -0.01l-0 -0 0 0zm-0 -0.01l-0 -0.01 0 0 0 0 -0 0zm0 0l0 0 -0 -0zm0.01 0.01l0 0 -0 -0zm0.01 0.01l0.07 0.11 0 0 0.01 0.01 0.01 0.01 0.01 0.01 0.01 0.01 0.02 0.02 0.01 0.02 2.55 7.78 -0.51 1.01 -1.97 -8.73 -0.02 -0.03 -0.02 -0.03 -0 -0.01 -0.02 -0.03 -0.01 -0.02 -0.01 -0.01 -0 -0 -0.1 -0.13 -0 -0zm0 -0l-0 -0 0 0zm-0.01 -0.01l-0 -0 0 0zm-0.01 -0.01l-0 -0 0 0 -0 0zm0.01 0l0 0 -0 -0zm0.01 0.01l0 0 -0 -0zm0.01 0.01l0.11 0.14 0.01 0.01 0.02 0.02 0.01 0.02 0.02 0.03 0.01 0.02 0.05 0.06 0.02 0.02 2.44 9.38 -0.79 0.6 -1.5 -9.84 -0.04 -0.04 -0.1 -0.11 -0.01 -0.01 -0.05 -0.06 -0.02 -0.02 -0.03 -0.03 -0 -0 -0.15 -0.17 -0.01 -0zm0 -0l-0 -0 0 0zm-0.01 -0.01l-0 -0 0 0zm-0 -0l0 0 0 0 -0 -0zm0.01 0.01l0 0 -0 -0zm0.01 0.01l0.19 0.19 0.07 0.08 0.09 0.1 0.25 0.26 0.94 9.38 2.23 -0.76 -0.95 0.23 -0.87 -7.67 -1.29 -1.2 -0.24 -0.22 -0.15 -0.14 -0.27 -0.25 -0.01 -0zm0 -0.01l-0 -0 0 0zm-0 -0l0.01 0 -0.01 -0zm0.02 0.01l12.63 7.71 0.78 -0.05 -0.34 -0.7 -13.05 -6.96 -0.02 -0zm0 -0.01l-0.01 -0.01 0.01 0.01zm-0.02 -0.01l-0.01 -0 0.01 0zm-0.02 -0.01l-0 -0 0.01 0 -0 0zm0.02 0.01l0.01 0 -0.01 -0zm0.02 0.01l0.01 0.01 -0.01 -0.01zm0.04 0.02l11.96 5.76 -0.38 -0.89 -11.54 -4.87 -0.04 -0.01zm-0 -0.01l-0.02 -0.01 0.02 0.01zm-0.04 -0.02l-0.01 -0.01 0.01 0.01zm-0.03 -0.01l-0.02 -0.01 -0 -0 0.03 0.01 -0.01 0zm0.02 0.01l0.02 0.01 -0.02 -0.01zm0.04 0.02l0.03 0.01 -0.03 -0.01zm0.08 0.03l10.39 3.93 -0.3 -0.68 -9.99 -3.23 -0.1 -0.02zm-0 -0.01l-0.04 -0.01 0.04 0.01zm-0.08 -0.03l-0.02 -0.01 0.02 0.01zm-0.04 -0.01l-0.05 -0.02 -0 -0 0.06 0.02 -0.01 0zm0.04 0.01l0.03 0.01 -0.03 -0.01zm0.08 0.02l0.06 0.02 -0.06 -0.02zm0.24 0.07l9.28 2.68 -0.12 -0.32 0.24 -0.19 -8.55 -2 -0.85 -0.17zm0.01 -0.02l-0.15 -0.04 0.15 0.04zm-0.25 -0.06l-0.04 -0.01 0.04 0.01zm-0.08 -0.02l-0.08 -0.02 -0.01 -0.01 0.09 0.03zm-0.09 -0.03l0 0.01 -0.03 -0.01 0.03 0.01 0 0 -0.03 -0.01 0.02 0zm-0.02 0l0.03 0.01 0 0 -0.03 -0.01 0 0 0 0 0 0zm0 0l0 0 0 0 0 0zm0 0l0.03 -0.01 -0.03 0.01zm0.03 -0.01l0 0 -0 0zm0 -0l0 0 -0 0zm0 0l0 -0 -0 0zm0 -0l0.11 -0.03 -0.11 0.03zm0.16 -0.05l0.06 -0.02 -0.06 0.02zm0.24 -0.07l9.28 -2.69 -9.28 2.69zm-0.41 0.03l-0 0 0 -0 0 -0 -0 0zm-0.01 0.01l-0 0 0 -0 0 -0 0 0zm-0.02 0.09l0 0 0.03 0.01 0 0 -0.03 -0.02 0 0 0 0zm0 0l0 0 0 0 0 0zm0.03 0.02l-0 -0 0 0 0 0 -0 -0zm-0 -0.01l-0 -0 0 0 0 0 -0 -0zm-0 -0l-0 -0 0 0 0 0 -0 0zm-0.03 -0.01l0 0 0 0zm0 0l0 0 0 0 0 0zm0 0l0 0 0 0zm0.04 0.02l-0 -0 0 0 0 0 -0 -0zm-0 -0.01l-0 -0 0 0 0 0 -0 -0zm-0 -0l-0 -0 0 0 0 0 -0 0zm0.01 0.01l-0 -0 0 0 0 0 -0 -0zm-0.01 -0.01l-0 -0 0 0 0 0 -0 -0zm-0.01 -0.01l-0 -0 0 0 0 0 -0 -0zm2.86 9.52l0.46 0.64 -2.95 -8.83 2.49 8.2zm-2.78 -9.06l-0.04 -0.13 0.04 0.13zm-0.08 -0.23l-0.01 -0.04 0.01 0.04zm-0.03 -0.08l-0.03 -0.09 -0.01 -0.01 -0.01 0.01 0.01 -0.03 0.01 0.03 -0.01 -0.01 0 0 0 0 0 0 0 0 0 0 0 0 -0.01 0.01 -0.02 0.05 0.07 0.04zm-0.08 -0.02l-0.01 0.02 0.01 -0.02zm-0.02 0.06l-0.01 0.04 0.01 -0.04zm-0.05 0.15l-0.04 0.13 0.04 -0.13zm-0.34 1.02l-2.94 8.82 -0.23 -0.51 3.43 -9.16 -0.26 0.86zm0.34 -1.06l0.02 -0.06 -0.02 0.06zm0.04 -0.11l0.01 -0.03 -0.01 0.03zm0.02 -0.05l0.01 -0.02 -0.01 0.02zm0.01 -0.03l0.01 -0.04 -0 0 -0.01 0.03 0 0.01zm-0.01 0.01l-0.01 0.01 0.01 -0.01zm-0.01 0.03l-0.01 0.02 0.01 -0.02zm-0.02 0.06l-0.02 0.04 0.02 -0.04zm-0.06 0.14l-3.97 9.12 0.19 0.03 3.81 -9.25 -0.03 0.1zm0.06 -0.15l0.01 -0.02 -0.01 0.02zm0.02 -0.05l0.01 -0.01 -0.01 0.01zm0.01 -0.03l0 -0.01 -0 0.01zm0.01 -0.02l0.01 -0.02 -0.01 0.01 0 0.01zm-0 -0.01l-0 0 0 -0zm-0.01 0.01l-0 0 0 -0zm-0.01 0.01l-0 0 0 -0zm-0.01 0.01l-0.09 0.08 -3.95 9.27 0.27 -0.16 -0.27 0.16 3.91 -9.24 -0.03 0.03 -2.53 9.69 0.11 0.2 2.36 -9.84 -0.07 0.06 -1.32 9.83 -0.6 -1.12 1.76 -8.57 -0.2 0.18 -1.08 8.84 -0.13 -0.65 -0.31 0.02 0.17 -7.02 0.3 7.45 0.14 0.51 0.85 -9.16 0.24 -0.22 -9.67 7.13 -0.97 -0.12 10.79 -7.14 0.26 -0.24 -0.03 0.01 -12.6 7.69 -0.78 -0.05 0.35 -0.7 13 -6.93 -0.04 0.01 -11.88 5.73 0.38 -0.89 11.41 -4.81 -0.16 0.05 -10.13 3.83 0.3 -0.68 8.99 -2.91 -8.34 2.45 0.04 -0.1 -0.1 0.03 0.1 -0.27 -0.2 -0.16 0.06 -0.01 -0.08 -0.06 8.55 -2 -9.3 1.91 -0.6 -0.44 10.74 -1.67 0.15 -0.04 -12.33 1.45 -0.78 -0.58 13.2 -0.89 0.04 -0.01 -14.78 0.4 -0.65 -0.43 0.65 -0.43 14.82 0.46 0.08 -0.02 0.01 -0.01 -0.01 -0.01 -0.16 -0.04 -13.21 -0.89 0.78 -0.58 12.33 1.45 -0.15 -0.04 -10.75 -1.67 0.6 -0.44 9.32 1.92 -8.56 -2 0.24 -0.19 -0.12 -0.32 9.28 2.69 0.13 0.03 -9.99 -3.23 -0.3 -0.68 10.39 3.93 0.04 0.01 -11.54 -4.87 -0.38 -0.89 11.96 5.76 0.02 0 -13.05 -6.96 -0.35 -0.7 0.78 -0.05 12.63 7.71 0.01 0 -0.27 -0.25 -10.79 -7.14 0.97 -0.12 9.67 7.12 -0.24 -0.22 -8.06 -6.42 0.74 -0.09 6.03 5.31 -5.34 -4.97 0.3 -0.05 0.06 -0.33 6.33 6.54 0.2 0.18 -6.78 -7.46 0.09 -0.73 6.84 8.33 0.07 0.06 -7.4 -9.74 0.12 -0.95 7.34 10.74 0.03 0.03 -7.7 -12.33 0.06 -0.77 0.71 0.34 6.97 12.79 0.09 0.08 -0.04 -0.13 -5.81 -11.69 0.9 0.37 4.88 11.22 -0.05 -0.16 -3.89 -9.97 0.69 0.29 2.94 8.82 -2.48 -8.17 0.29 0.1 0.22 -0.26 2.27 9.21 0.04 0.13 -2.15 -10.11 0.45 -0.59 1.73 10.8 0.01 0.04 -1.49 -12.26 0.59 -0.77 0.91 13.06 0.01 0.02 -0.41 -14.59 0.44 -0.64 0.44 0.64 -0.47 14.61 0.02 0.05 0.01 0.01 0 0 0 0 -0.06 0.16zm0.06 -0.08l0 0 0 0 0 0 -0.01 0.03 -0 0 0.01 -0.03 0 0zm0 0l0 0 0 0 0 0zm0.01 0.03l0 -0 -0.01 -0.01 0.01 0.01zm-0.01 -0.03l0.01 0.03 0 0 -0.01 -0.03zm0.02 0.03l0.02 0.01 -0.02 -0.01zm0.02 0.02l0 0 -0 -0zm0.01 0.01l0 0 -0 -0zm0.01 0.01l0.07 0.05 -0.07 -0.05zm0.09 0.06l0.02 0.01 -0.02 -0.01zm0.04 0.03l0.02 0.02 -0.02 -0.02zm0.07 0.04l0.04 0.02 -0.04 -0.02zm0.13 0.08l10.79 7.14 -0.97 0.12 -9.67 -7.13 -0.15 -0.14zm-0.02 0.02l-0.06 -0.04 0.06 0.04zm-0.12 -0.09l-0.03 -0.02 0.03 0.02zm-0.06 -0.05l-0.02 -0.01 0.02 0.01zm-0.04 -0.03l-0.08 -0.06 0.08 0.06zm-0.08 -0.06l-0 -0 0 0zm-0.01 -0.01l-0 -0 0 0zm-0.01 -0.01l-0.02 -0.01 0.02 0.01zm-0.02 -0.02l-0 -0 0 0 0 0 -0 -0zm0 0l0.02 0.01 -0.02 -0.01zm0.02 0.02l0 0 -0 -0zm0.01 0.01l0 0 -0 -0zm0.01 0.01l0.08 0.07 -0.08 -0.07zm0.11 0.09l0.02 0.02 -0.02 -0.02zm0.07 0.05l0.04 0.03 -0.04 -0.03zm0.13 0.1l0.09 0.07 -0.09 -0.07zm0.4 0.32l2.91 8.71 -0.7 0.24 -0.92 -7.75 -1.29 -1.2zm-0.06 0.01l-0.2 -0.18 0.2 0.18zm-0.36 -0.31l-0.07 -0.06 0.07 0.06zm-0.13 -0.11l-0.03 -0.03 0.03 0.03zm-0.07 -0.06l-0.09 -0.08 0.09 0.08zm-0.1 -0.09l-0 -0 0 0zm-0.01 -0.01l-0 -0 0 0zm-0.01 -0.01l-0.02 -0.02 0.02 0.02zm-0.02 -0.02l-0 -0 0.03 0.07 -0.02 -0.07zm0.03 0.09l0.01 0.03 -0.01 -0.03zm0.03 0.08l0.02 0.06 -0.02 -0.06zm0.1 0.25l3.12 9.07 -3.12 -9.07zm-0.35 -0.3l0.01 -0.02 -0.02 0.01 -0.02 0.02 0.02 -0.02zm0.02 -0.04l0.06 -0.09 -0 0 -0.07 0.1 0.02 -0.01zm0.06 -0.1l0 -0 -0 0 -0 0 0 -0zm0 -0.01l0 -0 -0 0 -0 0 0 -0zm0 -0.01l0 -0 -0 0 -0 0 0 -0zm0 -0.01l0 -0.01 -0 0 -0 0 0 0zm0.01 -0.01l0 -0 -0 0 -0 0 0 -0zm0 -0.01l0 -0 -0 0 -0 0 0 -0zm0 -0l0 -0 -0 0 -0 0 0 0zm0 -0l0 -0.01 0 0 -0 0.01 0 0zm0.06 0.02l0 0 0 0 0 0zm-0.24 0.21l0.02 -0.03 -0.03 0.02 -0.03 0.04 0.04 -0.03zm0.05 -0.06l0.09 -0.12 -0.01 0 -0.11 0.13 0.02 -0.02zm0.09 -0.13l0 -0 -0 0 -0 0 0 -0zm0.01 -0.01l0 -0 -0 0 -0 0 0 0zm0.01 -0.01l0 -0 -0 0 -0 0 0 0zm0.01 -0.01l0 -0 -0 0 0 0zm0.01 -0.01l0 -0 -0 0 -0 0 0 -0zm0.01 -0.01l0 -0 -0 0 -0 0 0 -0zm0 -0l0 -0 -0 0 -0 0 0 0zm0 -0l0.01 -0.01 -0.01 0.01 0 0zm-0.31 0.34l0.06 -0.07 -0.06 0.04 -0.09 0.1 0.09 -0.07zm0.11 -0.12l0.14 -0.16 -0 0 -0.18 0.18 0.04 -0.02zm0.15 -0.17l0 -0 -0 0 -0 0 0 -0zm0.01 -0.01l0 -0 -0 0 -0 0 0 0zm0.01 -0.01l0 -0 0 0 -0 0 -0 0 0 0zm0.01 -0.01l0 -0 -0 0 -0 0 0 -0zm0.01 -0.01l0 -0 -0 0 -0 0 0 -0zm0 -0.01l0 -0 -0 0 -0 0 0 -0zm0 -0l0.01 -0.01 -0.01 0.01 0 0zm0.01 -0.01l0 0 0 0 0 0 0 0 0 0 -0.01 -0.01 0 0 0.01 0.01 -0.01 -0.01 0 0 0.01 0.01 -0 -0.01 0 0 0 0.01zm-0.06 0.06l0 -0 -0.01 0 -0.01 0.01 0.02 -0zm0.01 -0.01l0 -0 0 0 -0.01 0 0 -0zm0.02 -0.02l0 -0 -0.01 0 0 0zm0.01 -0.01l0 -0 -0.03 0.01 0.01 0 0.02 -0.01zm0.01 -0.01l0 -0 -0.06 0.02 0.01 0 0.05 -0.02zm0.05 0.05l0 -0 0 -0 0 0 -0 0zm0 -0l0 -0 0.01 -0.01 -0.01 0.01zm-0.15 0.01l0.02 -0.01 -0.02 0 -0.02 0.01 0.03 -0.01zm0.03 -0.02l0.01 -0.01 -0.01 0 -0.01 0.01 0.01 -0zm0.02 -0.01l0.01 -0 -0.01 0 -0.01 0 0.01 -0zm-0.13 0.05l0.04 -0.01 -0.04 0.01 -0.06 0.02 0.06 -0.02zm0.07 -0.03l0.02 -0.01 -0.02 0 -0.03 0.01 0.03 -0zm0.04 -0.02l0.01 -0.01 -0.01 0 -0.02 0.01 0.01 -0zm-0.35 0.1l0.13 -0.04 -0.13 0.03 -0.3 0.09 0.3 -0.07zm0.23 -0.08l0.04 -0.01 -0.03 0 -0.06 0.02 0.05 -0.01zm0.08 -0.03l0.02 -0.01 -0.01 0 -0.03 0.01 0.02 -0zm0.13 -0.04l0 0 0 0zm-0.2 -0.06l0.03 0 -0.04 -0.01 -0.05 -0.01 0.06 0.02zm0.07 0.01l0.02 0 -0.02 -0.01 -0.03 -0 0.03 0.01zm0.04 0l0.01 0 -0.01 -0.01 -0.01 -0 0.01 0.01zm0.02 0l0 0 -0 -0 -0 0 0.01 0zm0.01 0l0 0 -0 -0 -0 -0 0 0zm0.01 0l0 0 -0 -0 -0 0 0 0zm0.01 0l0 0 -0 -0 -0 0 0 0zm0.01 0l0.03 0 -0 -0 -0.03 -0.01 0 0zm0.03 0l0 0 0 -0 -0 0 0 0zm0 0l0 0 0 -0 -0 -0 0 0zm0 0l0 0 0 -0 -0 0 0 0zm0 0l0.03 0 -0.03 -0 0 0zm-0 0l-0 0 0 0.03 0 0 -0 -0.03zm-0 0l-0 0 0 0.03 0 0 -0 -0.03zm-0 0l-0 0 0.01 0.03 0 0 -0.01 -0.03zm-0 -0l-0.03 -0 0.01 0.01 0.03 0.02 -0.01 -0.03zm-0.03 -0l-0 0 0.01 0.01 0 0 -0.01 -0.01zm-0.01 0l-0 -0 0.01 0.01 0 0 -0.01 -0.01zm-0.01 -0l-0 0 0 0 0 0 -0 -0zm-0.01 -0l-0.01 0 0.03 0.01 -0.01 -0.01 -0.01 -0.01zm-0.02 -0l-0.01 -0 0.06 0.02 -0 -0 -0.05 -0.02zm-0.03 -0l-0.02 -0 0.11 0.03 -0 -0 -0.09 -0.03zm0.05 -0.01l0 0 -0.16 -0.17 -0.04 -0.02 0.19 0.19zm0.01 0l0 0 -0.1 -0.13 -0.02 -0.02 0.12 0.14zm0.01 0l0 0 -0.06 -0.1 -0.02 -0.01 0.08 0.11zm0.01 0l0.04 0.01 -0.02 -0.05 -0.07 -0.05 0.05 0.09zm0.04 0.01l0 0 -0.01 -0.05 -0 -0 0.01 0.05zm0 0l0 0 -0 -0.04 -0 -0 0.01 0.04zm0 0l0 0 -0 -0.04 -0 -0 0 0.04zm-0.04 0.01l0 0 0 0 -0 -0 -0 -0zm0.01 0l0 0 0 0 -0 -0 -0 -0zm0 0l0 0 0 0 -0 -0 -0 -0zm0 0l0.03 0.02 0 0 -0.03 -0.01 -0 -0zm0.03 0.02l0 0 0 0 0 0 0 0zm0 0l0 0 0 0 0 0 0 0zm0 0l0 0 0 0 0 0 0 0zm-0.04 -0.02l0 0 0 0 -0 -0 -0 -0zm0 0l0 0 0 0 -0 0 -0 -0zm0 0l0 0 0 0 -0 0 -0 -0zm0 0l0.03 0.01 0 0 -0.03 -0.01 -0 -0zm0.03 0.01l0 0 0 0 0 0 0 0zm0 0l0 0 0 0 0 0 0 0zm0 0l0 0 0 0 0 0 0 0zm0 0l0 0 0 0 0 0 0 0 0 0 0 0 0 0 0 0 0 0 0 0 0 0 0 0 0 0 0 0 0 0 0 0 -0 -0zm0 0l-0 -0 0 0 0 0zm-0.03 -0.01l0 0 0 0 -0 -0 -0 -0zm0 0l0 0 0 0 0 0 -0 -0zm0 0l0 0 0 0 -0 -0 -0 -0zm0 0l0.03 0.01 0 0 -0.03 -0.01 -0 -0zm0.03 0.01l0 0 0 0 0 0 0 0zm0 0l0 0 0 0 0 0 0 0zm0 0l0 0 0 0 0 0 0 0zm0 0l0 0 -0 -0 0 0zm-0.33 -0.32l0.06 0.04 -0.06 -0.07 -0.09 -0.07 0.09 0.09zm0.12 0.09l0.03 0.02 -0.02 -0.03 -0.04 -0.03 0.03 0.04zm0.07 0.05l0.02 0.02 -0.01 -0.02 -0.02 -0.02 0.02 0.02zm0.04 0.03l0.08 0.06 -0 -0 -0.08 -0.07 0.01 0.01zm0.08 0.06l0 0 0 -0 -0 -0 0 0zm0.01 0.01l0 0 0 -0 -0 -0 0 0zm0.01 0.01l0 0 0 -0 -0 -0 0 0zm0.01 0.01l0.01 0.01 -0 -0 -0.01 -0.01 0 0zm0.01 0.01l0 0 0 -0 -0 -0 0 0zm-0.04 -0.04l0 0 -0.01 -0.06 -0.01 -0.02 0.02 0.08zm0.01 0.01l0 0 -0 -0.03 -0.01 -0.01 0.01 0.05zm0.01 0.01l0 0 -0 -0.02 -0 -0.01 0 0.02zm0.01 0.01l0.01 0.01 -0.01 -0.02 0 0.01zm0.01 0.01l0 0 -0.01 -0.04 0 0.01 0.01 0.03zm-0.07 -0.17l0.02 0.04 -0.01 -0.04 -0.02 -0.06 0.02 0.06zm0.03 0.07l0.01 0.02 -0 -0.02 -0.01 -0.03 0 0.03zm0.02 0.04l0.01 0.01 0 -0.01 -0.01 -0.02 0 0.01z"/>
    </g>
    <path class="fil0" d="M51.26 44.51c3.5,0 6.36,2.81 6.36,6.26 0,3.45 -2.85,6.26 -6.36,6.26 -3.5,0 -6.36,-2.81 -6.36,-6.26 0,-3.45 2.86,-6.26 6.36,-6.26z"/>
    <path class="fil0" d="M51.26 44.2c3.67,0 6.67,2.95 6.67,6.57 0,3.62 -3,6.57 -6.67,6.57 -3.67,0 -6.67,-2.95 -6.67,-6.57 0,-3.62 3,-6.57 6.67,-6.57z"/>
    <path class="fil3" d="M51.26 44.78c3.35,0 6.08,2.69 6.08,5.99 0,3.3 -2.73,5.99 -6.08,5.99 -3.35,0 -6.08,-2.69 -6.08,-5.99 0,-3.3 2.73,-5.99 6.08,-5.99z"/>
    <path class="fil0" d="M49.41 49.31c-0.06,0.34 0.18,0.52 0.45,0.63 0.38,0.16 0.46,0 0.37,-0.21 -0.31,-0.42 -0.23,-0.75 0.06,-1.3 0.19,-0.4 0.46,-0.54 0.56,0.14 -0.02,0.79 0.28,1.24 0.6,0.38 0.08,-0.15 0.3,-0.11 0.35,0.24 0.02,0.35 -0.26,0.65 -0.43,0.91 -0.08,0.14 -0.18,0.25 0,0.51 0.11,0.12 0.26,1.19 0.44,1.69 0.07,0.22 0.2,0.47 0.29,0.67 0.1,0.15 0.18,0.27 0.34,-0.11 0.16,-0.37 0.33,-0.71 0.55,-1.05 0.14,-0.21 0.03,-0.34 -0.31,-0.15 -0.1,0.1 -0.25,0.23 -0.34,0.33 -0.26,0.22 -0.38,0.03 -0.39,-0.34 0.02,-0.43 0.02,-0.65 0.17,-1.02 0.11,-0.35 0.7,-0.67 1.17,-0.75 0.35,-0.11 1.23,0.01 0.75,-0.67 -0.07,-0.34 0.04,-0.69 0.47,-0.84 1.32,-0.22 1.81,1.08 1.11,1.53 -0.66,0.11 -0.2,0.41 -0.17,0.82 -0.34,-0.06 -0.57,-0.21 -0.76,-0.48 -0.32,0.18 -0.6,0.28 -1.05,0.39 0.89,0.34 1.8,0.29 2.69,0.12 0.37,-0.25 0.47,0.02 0.31,0.39 -0.07,0.41 -0.44,0.59 -0.79,0.55 -1.26,0.16 -2.44,0.38 -3.05,1.71 -0.09,0.49 0.51,0.47 1.2,0.45 0.02,0.3 0.12,0.62 0.35,0.87 0.18,0.24 -0.14,0.31 -0.33,0.3 -1.8,0.22 -2.52,-1.44 -2.79,-2.43 -0.08,-0.33 -0.1,-0.28 -0.29,0.02 -0.74,1.25 -1.96,1.93 -2.96,1.92 -1.28,-0.22 -1.5,-1.33 -1.24,-2.07 -1.29,-0.94 -0.93,-2.22 -0.69,-3 0.13,-0.37 0.48,-0.25 0.43,0.15 -0.02,0.61 0,1.27 0.29,1.6 0.15,0.19 0.54,0.27 0.62,-0.35 0.25,-0.85 0.53,-1.38 1.24,-1.84 0.52,-0.31 0.78,-0.18 0.79,0.32zm-1.33 1.74c0.07,-0.25 0.23,-0.53 0.45,-0.69 0.13,-0.09 0.31,-0.18 0.44,0.16 0.28,0.53 1,0.63 1.42,0.39 0.24,-0.17 0.29,-0.08 0.32,0.11 0.03,0.49 -0.17,0.85 -0.4,1.18 -0.45,0.54 -1.11,0.96 -1.69,1.2 -0.63,0.25 -1.02,0.07 -1.3,-0.38 -0.07,-0.18 -0.1,-0.4 0.14,-0.53 0.11,-0.08 0.25,-0.32 0.35,-0.65 0.11,-0.38 0.14,-0.45 0.28,-0.78zm6.88 -2.06c0.19,0 0.19,0.29 0,0.29 -0.19,0 -0.19,-0.29 0,-0.29zm-0.83 -1.41c-0.19,0.24 -0.39,0.46 -0.69,0.68 -0.14,0.15 -0.27,0.21 -0.32,0.52 -0.1,0.37 -0.12,0.5 0.13,0.38 0.59,-0.37 1.17,-0.99 1.5,-1.6 0.07,-0 0.69,-0.09 0.51,-0.24 -0.11,-0.05 -0.23,-0.02 -0.32,-0.1 -0.2,-0.08 0,-0.31 -0.08,-0.45 -0.2,-0.58 -0.97,-0.32 -0.98,0.16 -0.01,0.16 0.07,0.35 0.2,0.44 0.16,0.05 0.16,0.12 0.06,0.21zm0.27 -0.77c0.19,-0.05 0.25,0.19 0.07,0.24 -0.19,0.05 -0.26,-0.19 -0.07,-0.24zm-5.44 1.36c-0.14,0.27 -0.23,0.72 0.15,0.55 0.23,-0.2 0.47,-0.37 0.75,-0.54 0.69,-0.48 1.58,-0.83 2.42,-1.12 0.34,-0.15 0.5,-0.28 0.78,-0.67 0.2,-0.47 0.04,-0.65 -0.37,-0.4 -1.07,0.58 -2.27,1.18 -3.4,1.66 -0.16,0.08 -0.21,0.24 -0.33,0.52zm0.08 -0.8c0.59,-0.25 1.39,-0.73 1.72,-0.88 0.14,-0.08 0.31,-0.25 0.37,-0.38 0.2,-0.63 -0.14,-0.51 -0.37,-0.35 -0.5,0.34 -1.66,0.68 -1.86,0.95 -0.28,0.28 -0.34,0.85 0.15,0.66zm-2.35 1.54c0.23,0.03 0.53,0.13 0.68,-0.1l0.13 -0.28c0.08,-0.14 -0.04,-0.37 -0.2,-0.39 -0.2,-0.03 -0.59,-0.15 -0.69,0.12 -0.08,0.2 -0.27,0.57 0.08,0.65zm1.24 -0.52c0.23,0.03 0.53,0.13 0.68,-0.1l0.13 -0.28c0.08,-0.14 -0.04,-0.37 -0.2,-0.39 -0.21,-0.03 -0.59,-0.15 -0.69,0.12 -0.08,0.2 -0.27,0.56 0.08,0.65zm3.53 0.2c0.07,0.08 0.57,0.31 0.86,-0.02 0.09,-0.08 0.07,-0.45 0.33,-0.25 0.52,0.09 0.66,-0.45 0.48,-0.83 -0.09,-0.27 -0.49,-0.23 -0.5,0.11 -0.02,0.18 -0.16,0.32 -0.22,0.05 0,-0.11 -0.28,-0.15 -0.36,0.08 -0.09,0.45 -0.4,0.45 -0.46,0.1 -0.02,-0.18 -0.25,-0.15 -0.34,0.06 -0.09,0.27 0.01,0.53 0.21,0.71zm-1.93 6.68c0.62,-0.47 1.06,-0.82 1.63,-1.35 0.16,-0.18 0.31,-0.92 -0.08,-0.62 -0.44,0.43 -0.92,0.74 -1.38,1 -0.16,0.08 -0.41,0.26 -0.43,0.41 -0.04,0.18 -0.05,0.26 -0.1,0.4 -0.05,0.27 -0.01,0.47 0.37,0.17zm1.78 -1.22c0.08,-0.16 0.19,-0.23 0.28,-0.05 0.02,0.51 0.13,0.57 0.26,0.85 0.08,0.22 0.13,0.38 0.07,0.61 -0.05,0.15 -0.19,0.29 -0.32,0.37 -0.13,0.08 -0.46,0.06 -0.5,-0.15 -0.02,-0.15 -0.01,-0.29 0.11,-0.38 0.08,-0.1 0.23,-0.09 0.04,-0.61 -0.07,-0.16 -0.05,-0.37 0.05,-0.64zm2.78 -1.24c0.05,-0.11 0.13,-0.17 0.27,-0.25 0.17,-0.07 0.35,-0.15 0.57,-0.18 0.39,-0.05 0.46,0.09 0.33,0.32 -0.1,0.12 -0.12,0.17 -0.25,0.28 -0.16,0.12 -0.2,0.38 0.07,0.32 0.07,-0.01 0.14,-0.08 0.19,-0.16 0.17,-0.17 0.43,0.02 0.32,0.28 -0.1,0.15 -0.21,0.25 -0.34,0.37 -0.2,0.18 -0.67,0.15 -0.81,-0.02 -0.07,-0.07 -0.19,-0.27 -0.04,-0.54 0.14,-0.14 0.48,-0.45 -0.11,-0.23 -0.11,0.01 -0.25,-0.01 -0.2,-0.19z"/>
    <path class="fil7" d="M50.86 95.17c-21.61,0 -39.12,-18.04 -39.12,-40.29 0,-22.25 17.52,-40.29 39.12,-40.29 21.61,0 39.13,18.04 39.13,40.29 0,22.25 -17.52,40.29 -39.13,40.29z"/>
    <path class="fil8" d="M14.64 85.49l5.07 -4.23 1.17 1.4c0.44,0.53 0.71,0.9 0.79,1.1 0.13,0.31 0.14,0.66 0.02,1.04 -0.12,0.38 -0.37,0.74 -0.78,1.07 -0.31,0.26 -0.61,0.43 -0.91,0.51 -0.29,0.08 -0.56,0.1 -0.81,0.05 -0.25,-0.05 -0.45,-0.13 -0.62,-0.25 -0.22,-0.17 -0.5,-0.45 -0.83,-0.85l-0.48 -0.57 -1.91 1.59 -0.73 -0.88zm4.94 -2.64l-1.44 1.2 0.4 0.48c0.29,0.34 0.5,0.55 0.65,0.62 0.15,0.07 0.31,0.09 0.48,0.06 0.17,-0.03 0.33,-0.11 0.48,-0.23 0.19,-0.15 0.3,-0.33 0.34,-0.52 0.04,-0.19 0.02,-0.37 -0.07,-0.54 -0.06,-0.12 -0.23,-0.34 -0.49,-0.66l-0.35 -0.42zm5.46 4.04l0.92 0.67 -2.11 2.89c-0.34,0.46 -0.54,0.76 -0.62,0.92 -0.12,0.25 -0.16,0.49 -0.11,0.73 0.05,0.24 0.2,0.45 0.46,0.64 0.26,0.19 0.5,0.27 0.72,0.24 0.22,-0.03 0.41,-0.12 0.57,-0.29 0.16,-0.16 0.39,-0.45 0.7,-0.88l2.16 -2.95 0.92 0.68 -2.05 2.8c-0.47,0.64 -0.82,1.07 -1.07,1.3 -0.24,0.23 -0.5,0.38 -0.76,0.47 -0.27,0.09 -0.55,0.1 -0.85,0.04 -0.3,-0.06 -0.63,-0.21 -0.99,-0.48 -0.43,-0.32 -0.72,-0.62 -0.86,-0.9 -0.14,-0.28 -0.2,-0.56 -0.2,-0.85 0.01,-0.28 0.07,-0.54 0.18,-0.78 0.16,-0.35 0.46,-0.82 0.9,-1.42l2.08 -2.84zm4.26 10.73l2.85 -5.95 2.17 1.04c0.54,0.26 0.91,0.5 1.11,0.73 0.2,0.22 0.3,0.51 0.32,0.85 0.02,0.35 -0.06,0.69 -0.23,1.05 -0.21,0.45 -0.5,0.76 -0.87,0.95 -0.36,0.18 -0.79,0.21 -1.27,0.07 0.15,0.26 0.25,0.51 0.31,0.76 0.06,0.25 0.1,0.67 0.12,1.25l0.06 1.46 -1.23 -0.59 -0.11 -1.65c-0.04,-0.59 -0.09,-0.97 -0.13,-1.13 -0.04,-0.17 -0.1,-0.3 -0.19,-0.4 -0.09,-0.1 -0.25,-0.2 -0.49,-0.31l-0.21 -0.1 -1.19 2.49 -1.03 -0.49zm2.67 -2.94l0.76 0.36c0.49,0.24 0.81,0.36 0.96,0.37 0.15,0.01 0.28,-0.03 0.41,-0.11 0.13,-0.09 0.23,-0.22 0.32,-0.4 0.1,-0.2 0.13,-0.38 0.1,-0.55 -0.03,-0.17 -0.12,-0.31 -0.28,-0.42 -0.08,-0.05 -0.32,-0.18 -0.74,-0.38l-0.8 -0.38 -0.72 1.51zm7.02 6.74l0.23 -6.73 1.14 0.27 -0.23 4.6 2.04 -4.17 1.32 0.31 -0.1 4.71 1.9 -4.29 1.12 0.26 -2.84 6.11 -1.19 -0.28 0.05 -5.06 -2.23 4.54 -1.22 -0.29zm10.29 -1.65c-0.02,-0.67 0.04,-1.24 0.2,-1.71 0.12,-0.34 0.28,-0.65 0.49,-0.92 0.21,-0.28 0.45,-0.48 0.71,-0.62 0.35,-0.18 0.75,-0.29 1.21,-0.3 0.83,-0.03 1.51,0.25 2.03,0.84 0.52,0.59 0.8,1.42 0.83,2.5 0.04,1.07 -0.18,1.91 -0.66,2.53 -0.47,0.62 -1.13,0.94 -1.95,0.97 -0.84,0.03 -1.52,-0.25 -2.03,-0.83 -0.52,-0.58 -0.79,-1.4 -0.83,-2.45zm1.17 -0.09c0.03,0.75 0.19,1.31 0.5,1.69 0.31,0.38 0.69,0.56 1.14,0.54 0.46,-0.02 0.82,-0.22 1.1,-0.61 0.28,-0.4 0.4,-0.97 0.38,-1.74 -0.03,-0.76 -0.19,-1.32 -0.48,-1.68 -0.3,-0.36 -0.68,-0.54 -1.15,-0.52 -0.47,0.02 -0.84,0.22 -1.12,0.6 -0.27,0.39 -0.4,0.96 -0.37,1.72zm9.36 2.41l-1.52 -6.42 2.33 -0.55c0.59,-0.14 1.03,-0.18 1.32,-0.13 0.3,0.05 0.55,0.21 0.78,0.46 0.23,0.26 0.39,0.58 0.48,0.96 0.11,0.48 0.09,0.91 -0.08,1.28 -0.17,0.37 -0.48,0.65 -0.94,0.85 0.28,0.11 0.52,0.24 0.72,0.4 0.2,0.16 0.49,0.46 0.88,0.9l0.97 1.09 -1.33 0.31 -1.13 -1.21c-0.4,-0.43 -0.67,-0.7 -0.81,-0.8 -0.14,-0.1 -0.27,-0.17 -0.4,-0.19 -0.13,-0.02 -0.32,0 -0.58,0.06l-0.22 0.05 0.63 2.68 -1.11 0.26zm0.24 -3.97l0.82 -0.19c0.53,-0.13 0.86,-0.23 0.98,-0.31 0.12,-0.08 0.2,-0.2 0.25,-0.35 0.04,-0.15 0.04,-0.32 -0,-0.51 -0.05,-0.22 -0.14,-0.38 -0.27,-0.49 -0.13,-0.11 -0.29,-0.16 -0.48,-0.15 -0.09,0.01 -0.37,0.06 -0.81,0.17l-0.87 0.2 0.39 1.63zm9.09 1.04l-2.78 -5.99 3.79 -1.76 0.47 1.01 -2.75 1.28 0.62 1.33 2.56 -1.19 0.47 1.01 -2.56 1.19 0.75 1.62 2.85 -1.32 0.47 1.01 -3.89 1.81zm5.92 -11.09l0.92 -0.67 2.46 3.38c0.32,0.44 0.54,0.81 0.64,1.09 0.14,0.38 0.16,0.74 0.06,1.1 -0.1,0.36 -0.34,0.68 -0.72,0.96 -0.45,0.33 -0.9,0.43 -1.36,0.31 -0.46,-0.12 -0.89,-0.46 -1.31,-1.03l0.79 -0.75c0.23,0.3 0.42,0.48 0.58,0.56 0.24,0.12 0.46,0.11 0.66,-0.04 0.2,-0.15 0.3,-0.32 0.28,-0.52 -0.02,-0.2 -0.18,-0.51 -0.5,-0.95l-2.51 -3.45zm6.19 -1c-0.49,-0.46 -0.84,-0.91 -1.06,-1.35 -0.16,-0.32 -0.26,-0.66 -0.3,-1 -0.04,-0.34 -0.02,-0.66 0.06,-0.94 0.11,-0.38 0.33,-0.73 0.64,-1.07 0.57,-0.61 1.25,-0.88 2.03,-0.84 0.78,0.05 1.57,0.44 2.35,1.18 0.78,0.73 1.22,1.48 1.32,2.26 0.1,0.77 -0.13,1.46 -0.7,2.07 -0.57,0.61 -1.25,0.89 -2.03,0.84 -0.78,-0.05 -1.55,-0.43 -2.32,-1.16zm0.77 -0.89c0.55,0.51 1.06,0.79 1.55,0.84 0.48,0.05 0.88,-0.09 1.19,-0.42 0.31,-0.33 0.43,-0.74 0.35,-1.21 -0.08,-0.48 -0.4,-0.98 -0.96,-1.5 -0.55,-0.52 -1.06,-0.8 -1.53,-0.85 -0.47,-0.05 -0.86,0.1 -1.18,0.44 -0.32,0.34 -0.44,0.75 -0.37,1.22 0.08,0.47 0.4,0.96 0.95,1.48z"/>
    <path class="fil7" d="M51.28 15.67c-21.61,0 -39.12,18.04 -39.12,40.29 0,22.25 17.52,40.29 39.12,40.29 21.61,0 39.12,-18.04 39.12,-40.29 0,-22.25 -17.52,-40.29 -39.12,-40.29z"/>
    <path class="fil9" d="M12.53 70.96l-5.56 1.55 -0.45 -1.61 3.53 -2.01 -4.06 0.12 -0.45 -1.61 5.56 -1.55 0.28 0.99 -4.38 1.23 4.67 -0.17 0.29 1.03 -4.09 2.26 4.38 -1.22 0.28 0.99zm-7.6 -6.33l-0.13 -1.11 3.11 -0.38c0.49,-0.06 0.81,-0.11 0.95,-0.16 0.23,-0.07 0.41,-0.21 0.52,-0.4 0.12,-0.19 0.16,-0.44 0.13,-0.75 -0.04,-0.31 -0.13,-0.54 -0.29,-0.68 -0.15,-0.14 -0.33,-0.22 -0.53,-0.22 -0.2,-0.01 -0.53,0.02 -0.98,0.07l-3.17 0.38 -0.13 -1.11 3.01 -0.36c0.69,-0.08 1.18,-0.11 1.47,-0.09 0.29,0.03 0.55,0.11 0.76,0.24 0.21,0.14 0.4,0.33 0.54,0.58 0.15,0.26 0.25,0.6 0.3,1.03 0.06,0.52 0.05,0.92 -0.05,1.21 -0.09,0.28 -0.23,0.52 -0.42,0.7 -0.18,0.18 -0.38,0.31 -0.6,0.39 -0.32,0.11 -0.8,0.21 -1.44,0.28l-3.06 0.37zm5.03 -7.06l-5.77 -0.15 0.03 -1.12 2.27 0.06 0.06 -2.17 -2.27 -0.06 0.03 -1.12 5.77 0.15 -0.03 1.12 -2.52 -0.07 -0.06 2.17 2.52 0.07 -0.03 1.12zm1.09 -11.29l-0.21 1.19 -1.38 0.24 -0.38 2.18 1.21 0.68 -0.2 1.16 -5.31 -3.11 0.2 -1.16 6.07 -1.17zm-2.61 1.61l-2.24 0.38 1.97 1.1 0.26 -1.49zm2.91 -3l-5.49 -1.8 0.52 -1.59 4.05 0.29 -3.44 -2.16 0.52 -1.59 5.49 1.8 -0.32 0.98 -4.32 -1.42 3.98 2.45 -0.34 1.02 -4.66 -0.39 4.32 1.42 -0.32 0.98zm2.36 -6.87l-5.04 -2.81 0.82 -1.46 3.92 1.06 -2.96 -2.77 0.82 -1.46 5.04 2.81 -0.5 0.9 -3.97 -2.21 3.44 3.16 -0.52 0.94 -4.5 -1.27 3.97 2.22 -0.5 0.9zm6.63 -10.26l-0.73 0.96 -1.33 -0.42 -1.34 1.76 0.77 1.16 -0.72 0.94 -3.3 -5.2 0.71 -0.94 5.93 1.73zm-3.06 0.24l-2.17 -0.68 1.25 1.88 0.91 -1.2zm-0.01 -5.41l1.45 -1.42c0.33,-0.32 0.6,-0.54 0.82,-0.66 0.3,-0.15 0.62,-0.22 0.96,-0.2 0.34,0.02 0.69,0.12 1.03,0.3 0.34,0.18 0.71,0.46 1.08,0.85 0.33,0.34 0.58,0.67 0.74,0.99 0.2,0.4 0.3,0.78 0.29,1.14 0,0.28 -0.08,0.57 -0.23,0.88 -0.12,0.23 -0.32,0.49 -0.62,0.78l-1.49 1.47 -4.05 -4.12zm1.48 -0.09l2.68 2.73 0.59 -0.58c0.22,-0.22 0.37,-0.39 0.44,-0.51 0.1,-0.16 0.15,-0.32 0.15,-0.49 0.01,-0.16 -0.06,-0.36 -0.18,-0.6 -0.13,-0.24 -0.35,-0.51 -0.66,-0.83 -0.31,-0.32 -0.58,-0.54 -0.8,-0.65 -0.22,-0.12 -0.43,-0.18 -0.62,-0.18 -0.19,0 -0.37,0.05 -0.56,0.17 -0.14,0.08 -0.37,0.28 -0.69,0.6l-0.36 0.35zm7.25 -0.09l-3.63 -4.49 0.87 -0.7 3.63 4.49 -0.87 0.7zm3.63 -2.6l-1.35 -2.02 -3.54 -1.66 1.09 -0.72 2.35 1.18 -0.21 -2.61 1.07 -0.71 0.18 3.91 1.34 2.01 -0.93 0.62zm7.8 -4.01l-1.09 0.51 -0.99 -0.99 -2 0.94 0.14 1.38 -1.07 0.5 -0.52 -6.14 1.07 -0.5 4.45 4.29zm-2.82 -1.21l-1.6 -1.61 0.23 2.25 1.37 -0.64zm4.2 0.76l-1.34 -5.62 1.09 -0.26 0.53 2.21 2.11 -0.5 -0.53 -2.21 1.09 -0.26 1.33 5.62 -1.09 0.26 -0.58 -2.45 -2.11 0.5 0.58 2.46 -1.09 0.26zm8.2 -7.51l2.2 -0.06c0.44,-0.01 0.76,-0 0.98,0.03 0.22,0.03 0.41,0.11 0.58,0.22 0.17,0.12 0.32,0.27 0.44,0.47 0.12,0.2 0.18,0.42 0.19,0.67 0.01,0.27 -0.05,0.52 -0.19,0.75 -0.13,0.23 -0.32,0.4 -0.55,0.52 0.34,0.09 0.6,0.26 0.79,0.5 0.19,0.24 0.29,0.53 0.29,0.87 0.01,0.26 -0.04,0.52 -0.15,0.77 -0.11,0.25 -0.26,0.46 -0.46,0.61 -0.2,0.15 -0.44,0.25 -0.74,0.3 -0.18,0.02 -0.63,0.05 -1.34,0.08l-1.88 0.05 -0.16 -5.77zm1.14 0.93l0.04 1.33 0.73 -0.02c0.43,-0.01 0.7,-0.03 0.81,-0.04 0.19,-0.03 0.34,-0.1 0.44,-0.22 0.11,-0.12 0.16,-0.27 0.15,-0.45 -0.01,-0.18 -0.06,-0.32 -0.15,-0.43 -0.09,-0.11 -0.24,-0.17 -0.42,-0.19 -0.11,-0.01 -0.43,-0.01 -0.95,0.01l-0.64 0.02zm0.06 2.29l0.04 1.55 1.03 -0.03c0.4,-0.01 0.65,-0.03 0.76,-0.06 0.16,-0.04 0.3,-0.12 0.4,-0.24 0.1,-0.13 0.15,-0.29 0.14,-0.5 -0,-0.18 -0.05,-0.32 -0.13,-0.44 -0.08,-0.12 -0.2,-0.2 -0.36,-0.25 -0.15,-0.05 -0.48,-0.07 -0.99,-0.06l-0.9 0.03zm5.49 -0.44c0.07,-0.58 0.22,-1.06 0.44,-1.44 0.16,-0.28 0.37,-0.52 0.61,-0.72 0.25,-0.2 0.5,-0.35 0.77,-0.43 0.36,-0.11 0.76,-0.13 1.21,-0.08 0.81,0.1 1.42,0.45 1.84,1.03 0.42,0.59 0.57,1.35 0.45,2.28 -0.12,0.93 -0.45,1.62 -1,2.08 -0.55,0.46 -1.22,0.64 -2.03,0.54 -0.81,-0.1 -1.43,-0.45 -1.84,-1.03 -0.41,-0.58 -0.56,-1.33 -0.45,-2.24zm1.14 0.11c-0.08,0.65 -0,1.16 0.24,1.53 0.24,0.37 0.59,0.59 1.03,0.64 0.44,0.06 0.82,-0.06 1.15,-0.36 0.33,-0.3 0.53,-0.78 0.61,-1.44 0.08,-0.66 0.01,-1.16 -0.23,-1.52 -0.23,-0.36 -0.58,-0.57 -1.04,-0.63 -0.46,-0.06 -0.84,0.06 -1.16,0.35 -0.32,0.29 -0.52,0.77 -0.61,1.43zm10.25 5.13l-1.15 -0.33 -0.09 -1.39 -2.12 -0.61 -0.81 1.14 -1.13 -0.33 3.66 -4.95 1.13 0.33 0.52 6.16zm-1.32 -2.77l-0.14 -2.27 -1.31 1.85 1.45 0.42zm2.65 3.33l2.42 -5.24 2.13 0.98c0.53,0.25 0.9,0.47 1.1,0.68 0.2,0.21 0.32,0.46 0.35,0.77 0.03,0.31 -0.02,0.62 -0.16,0.93 -0.18,0.4 -0.44,0.67 -0.78,0.82 -0.34,0.15 -0.74,0.16 -1.21,0.03 0.16,0.23 0.27,0.46 0.34,0.69 0.07,0.22 0.13,0.6 0.18,1.12l0.14 1.3 -1.21 -0.56 -0.19 -1.48c-0.07,-0.53 -0.13,-0.86 -0.18,-1.01 -0.05,-0.15 -0.11,-0.27 -0.2,-0.36 -0.09,-0.09 -0.25,-0.19 -0.48,-0.29l-0.2 -0.09 -1.01 2.19 -1.01 -0.47zm2.41 -2.55l0.75 0.35c0.48,0.22 0.8,0.34 0.94,0.36 0.14,0.01 0.27,-0.02 0.39,-0.09 0.12,-0.07 0.21,-0.19 0.29,-0.35 0.08,-0.18 0.1,-0.34 0.06,-0.49 -0.04,-0.15 -0.13,-0.28 -0.29,-0.38 -0.08,-0.05 -0.32,-0.17 -0.73,-0.36l-0.79 -0.36 -0.62 1.33zm6.46 0.6l1.7 1.11c0.38,0.25 0.66,0.47 0.82,0.67 0.21,0.26 0.35,0.56 0.4,0.9 0.05,0.34 0.03,0.69 -0.07,1.07 -0.1,0.37 -0.3,0.79 -0.6,1.24 -0.26,0.4 -0.53,0.71 -0.81,0.94 -0.34,0.28 -0.7,0.45 -1.05,0.53 -0.27,0.06 -0.57,0.05 -0.91,-0.04 -0.25,-0.06 -0.55,-0.21 -0.89,-0.44l-1.75 -1.14 3.16 -4.83zm0.4 1.43l-2.09 3.2 0.69 0.45c0.26,0.17 0.46,0.28 0.59,0.32 0.18,0.06 0.35,0.07 0.51,0.04 0.16,-0.03 0.34,-0.13 0.55,-0.31 0.2,-0.17 0.43,-0.45 0.67,-0.82 0.24,-0.37 0.4,-0.68 0.47,-0.92 0.07,-0.24 0.08,-0.45 0.04,-0.64 -0.04,-0.19 -0.13,-0.36 -0.28,-0.51 -0.11,-0.11 -0.35,-0.3 -0.73,-0.54l-0.42 -0.27zm1.61 7.1l3.86 -4.3 0.83 0.75 -3.86 4.3 -0.83 -0.75zm2.27 1.99l4.23 -3.93 0.74 0.79 -1.29 4.3 2.83 -2.63 0.7 0.76 -4.23 3.93 -0.76 -0.82 1.26 -4.22 -2.78 2.59 -0.7 -0.76zm7.44 5.7l0.8 -0.55 1.36 1.97 -1.9 1.31c-0.33,-0.06 -0.69,-0.22 -1.09,-0.48 -0.4,-0.26 -0.73,-0.58 -0.98,-0.95 -0.33,-0.47 -0.51,-0.96 -0.54,-1.46 -0.03,-0.5 0.08,-0.97 0.35,-1.41 0.27,-0.44 0.63,-0.83 1.09,-1.14 0.5,-0.34 1.01,-0.55 1.53,-0.61 0.52,-0.07 1.02,0.02 1.49,0.26 0.36,0.18 0.69,0.49 0.98,0.92 0.39,0.56 0.57,1.09 0.54,1.58 -0.03,0.49 -0.23,0.93 -0.61,1.32l-0.81 -0.79c0.19,-0.22 0.29,-0.47 0.31,-0.74 0.01,-0.27 -0.07,-0.53 -0.25,-0.8 -0.28,-0.4 -0.63,-0.63 -1.06,-0.68 -0.43,-0.05 -0.91,0.1 -1.43,0.46 -0.57,0.39 -0.91,0.8 -1.03,1.23 -0.12,0.43 -0.04,0.85 0.22,1.23 0.13,0.19 0.3,0.36 0.52,0.49 0.21,0.14 0.42,0.24 0.63,0.3l0.6 -0.41 -0.72 -1.05zm3.01 5.74l0.54 0.95c-0.32,0.21 -0.52,0.44 -0.61,0.7 -0.08,0.25 -0.06,0.53 0.08,0.84 0.14,0.33 0.32,0.54 0.54,0.64 0.22,0.1 0.43,0.11 0.62,0.02 0.12,-0.05 0.22,-0.14 0.27,-0.25 0.06,-0.11 0.08,-0.26 0.07,-0.47 -0.01,-0.14 -0.05,-0.44 -0.13,-0.91 -0.1,-0.61 -0.09,-1.07 0.02,-1.38 0.15,-0.44 0.44,-0.75 0.86,-0.93 0.27,-0.12 0.56,-0.16 0.85,-0.12 0.3,0.04 0.57,0.17 0.81,0.39 0.25,0.22 0.45,0.52 0.62,0.91 0.28,0.63 0.34,1.17 0.19,1.62 -0.15,0.45 -0.47,0.79 -0.95,1.02l-0.49 -1.01c0.25,-0.16 0.41,-0.34 0.46,-0.54 0.06,-0.19 0.02,-0.43 -0.1,-0.72 -0.13,-0.29 -0.29,-0.5 -0.5,-0.61 -0.13,-0.07 -0.26,-0.08 -0.4,-0.02 -0.13,0.05 -0.21,0.15 -0.25,0.29 -0.06,0.18 -0.04,0.54 0.05,1.09 0.1,0.55 0.13,0.97 0.1,1.26 -0.03,0.3 -0.12,0.56 -0.29,0.79 -0.17,0.23 -0.42,0.43 -0.75,0.57 -0.3,0.13 -0.62,0.18 -0.96,0.13 -0.33,-0.04 -0.63,-0.18 -0.89,-0.42 -0.26,-0.24 -0.48,-0.58 -0.67,-1.01 -0.28,-0.64 -0.34,-1.2 -0.18,-1.67 0.16,-0.48 0.52,-0.88 1.08,-1.2zm3.57 9.41l-0.05 1.13c-0.66,0.01 -1.19,-0.13 -1.59,-0.42 -0.4,-0.29 -0.68,-0.72 -0.84,-1.29 -0.2,-0.71 -0.1,-1.36 0.27,-1.95 0.38,-0.59 1.01,-1.01 1.88,-1.26 0.93,-0.26 1.71,-0.23 2.35,0.09 0.64,0.31 1.06,0.84 1.27,1.59 0.18,0.65 0.13,1.23 -0.17,1.75 -0.17,0.31 -0.46,0.58 -0.88,0.83l-0.56 -0.99c0.27,-0.14 0.46,-0.34 0.57,-0.58 0.11,-0.25 0.13,-0.51 0.05,-0.8 -0.11,-0.39 -0.35,-0.67 -0.71,-0.84 -0.36,-0.16 -0.88,-0.15 -1.54,0.03 -0.7,0.2 -1.17,0.46 -1.4,0.78 -0.23,0.33 -0.29,0.68 -0.19,1.07 0.08,0.29 0.24,0.51 0.49,0.66 0.25,0.15 0.59,0.22 1.02,0.19zm-1.55 3.4l5.73 -0.69 0.13 1.11 -2.26 0.27 0.26 2.16 2.26 -0.27 0.13 1.11 -5.73 0.69 -0.13 -1.11 2.5 -0.3 -0.26 -2.16 -2.51 0.3 -0.13 -1.11zm3.37 6.22c0.59,0.02 1.08,0.11 1.48,0.29 0.29,0.13 0.55,0.31 0.78,0.53 0.23,0.22 0.39,0.47 0.5,0.73 0.14,0.35 0.21,0.75 0.2,1.2 -0.02,0.81 -0.3,1.46 -0.85,1.93 -0.54,0.47 -1.28,0.7 -2.23,0.67 -0.93,-0.03 -1.66,-0.29 -2.17,-0.79 -0.51,-0.5 -0.76,-1.15 -0.74,-1.96 0.02,-0.82 0.3,-1.47 0.84,-1.94 0.54,-0.47 1.27,-0.69 2.19,-0.67zm0.01 1.15c-0.65,-0.02 -1.15,0.11 -1.5,0.39 -0.34,0.28 -0.52,0.64 -0.54,1.09 -0.01,0.44 0.15,0.81 0.47,1.11 0.33,0.29 0.83,0.45 1.5,0.47 0.66,0.02 1.16,-0.11 1.49,-0.38 0.33,-0.27 0.51,-0.63 0.52,-1.09 0.01,-0.46 -0.14,-0.84 -0.46,-1.13 -0.32,-0.29 -0.82,-0.44 -1.48,-0.46zm-0.43 6.22c0.57,0.13 1.04,0.32 1.39,0.57 0.26,0.19 0.48,0.41 0.66,0.67 0.18,0.26 0.3,0.53 0.36,0.81 0.07,0.37 0.06,0.77 -0.03,1.21 -0.18,0.8 -0.58,1.37 -1.2,1.74 -0.62,0.36 -1.39,0.44 -2.31,0.24 -0.91,-0.2 -1.57,-0.6 -1.98,-1.18 -0.41,-0.58 -0.53,-1.28 -0.35,-2.07 0.18,-0.8 0.57,-1.38 1.19,-1.74 0.62,-0.36 1.38,-0.44 2.28,-0.24zm-0.21 1.13c-0.64,-0.14 -1.15,-0.11 -1.55,0.1 -0.39,0.21 -0.64,0.53 -0.73,0.97 -0.1,0.43 -0.01,0.83 0.25,1.18 0.27,0.35 0.73,0.6 1.38,0.74 0.65,0.14 1.16,0.11 1.54,-0.09 0.38,-0.2 0.62,-0.52 0.72,-0.97 0.1,-0.45 0.02,-0.85 -0.24,-1.19 -0.26,-0.35 -0.72,-0.59 -1.37,-0.74zm-4.19 5.16l5.34 2.06 -0.4 1.04 -4.43 -1.71 -0.99 2.58 -0.91 -0.35 1.39 -3.62z"/>
    <path class="fil10" d="M38.17 36.23c-0.11,-0.28 -0.43,-0.34 -0.7,-0.51l-0.08 -0.69c0.56,0.23 1.46,0.98 1.28,1.85 -0.23,0.31 -0.86,0.31 -1.28,0.34 -0.24,0.35 -0.02,0.23 -0.54,0.83 -0.41,0.47 -0.49,0.47 -0.8,0.39 -0.07,0.37 -0.34,0.72 -0.56,0.92 -0.6,0.54 -0.34,0.98 -1.67,-0.02 -0.23,-0.17 -0.6,-0.5 -0.84,-0.61 0.59,1.36 1.71,1.76 0.3,3.76 -0.06,0.08 -0.08,0.13 -0.17,0.24 -0.14,0.18 -0.03,0.13 -0.22,0.13 -0.08,-0.17 0.15,-0.9 0.18,-1.16 0.07,-0.48 0.06,-0.96 -0.01,-1.44 -0.42,-0.31 -1.45,-0.35 -2.05,-0.25l0.11 0.2c-0.83,0.21 -1.19,0.55 -1.87,-0.58 0.39,-0.2 1.51,-0.31 2.04,-0.29 1.11,0.05 1.42,0.46 1.73,0.51 -0.63,-2.07 -1.14,-1.71 -1.56,-2.23 -0.13,-0.16 -0.24,-0.78 -0.28,-1.02l2.48 1.88c0.2,0.16 0.59,0.51 0.83,0.56 1.54,-1.26 1.03,-1.58 0.94,-2.36l0.26 -0.07c0.18,0.23 0.24,0.62 0.35,0.91 0.19,-0.07 0.6,-0.48 0.7,-0.7 0.16,-0.37 -0.09,-0.76 -0.14,-1.1l0.25 -0.08c0.2,0.22 0.24,0.52 0.4,0.78 0.29,0.02 0.71,-0.03 0.93,-0.18zm18.22 -3.63c-0.59,0.52 -0.59,0.3 -1.34,0.15 -0.29,-0.06 -0.55,0.02 -0.74,-0.18 -0.17,-0.19 -0.13,-0.42 -0.23,-0.64 -0.11,0.06 -0.06,0.02 -0.13,0.14 -0.24,0.45 0,0.57 -0.78,0.68 -1.38,0.19 -1.69,-0.02 -1.43,-0.94 0.15,-0.55 0.1,-0.54 0.28,-0.57 0.13,0.14 0.06,0.25 0.1,0.47 0.3,0.18 0.77,0.14 1.18,0.11 1.07,-0.1 0.6,-0.38 0.5,-1.77 -0.02,-0.3 0.3,-0.56 0.46,-0.76 0.11,0.54 0.1,2.22 0.41,2.49 0.17,0.05 0.29,0.02 0.46,0.05 0.19,0.03 0.11,0.05 0.33,0.1 1.38,0.35 0.71,-0.02 1.61,-0.65 0.26,-0.18 0.84,-0.42 1.09,-0.04 0.13,0.4 -0.08,0.73 0.24,1.22 0.11,0.17 0.26,0.21 0.5,0.25 1.12,0.16 1.07,0.85 2.85,0.63 -0.15,-0.2 -0.54,-0.49 -0.76,-0.66 -0.67,-0.51 -0.67,-0.13 -0.92,-0.13 -0.14,-0.17 0.09,-0.29 0.22,-0.43 0.13,-0.13 0.25,-0.28 0.44,-0.37 0.65,-0.32 1.41,0.78 2.5,1.45l0.48 0.29c-0.08,0.14 -0.56,0.62 -0.67,0.69 -0.35,-0.16 -0.63,-0.49 -1.13,-0.37 0.06,0.48 1.06,0.63 1.55,0.98 1.05,0.75 0.64,0.38 1.71,-0.01 0.99,-0.36 1.39,0.07 1.02,1.08 -0.04,0.11 -0.31,0.95 -0.31,0.95 -0.06,0.08 -0.73,0.38 -0.84,0.42 -0.22,-0.26 -0.68,-1.01 -0.8,-1.46 -0.47,0.18 -0.47,0.38 -0.97,0.02 -0.29,-0.21 -0.48,-0.32 -0.87,-0.49 -1.41,-0.64 -1.11,-0.66 -0.88,-1.4 -0.79,0.17 -1.02,0.4 -1.91,0.07 -0.23,-0.09 -0.6,-0.31 -0.79,-0.35 -0.55,-0.11 -0.35,-0.01 -0.73,-0.32 -0.12,0.16 -0.24,0.34 -0.48,0.44l-0.66 -0.53c-0.33,-0.29 -0.31,-0.35 -0.51,-0.54l-0.06 -0.04zm-5.78 -0.01c-0,0 -1.65,0.18 -1.85,0.2 -0.81,0.08 -0.85,-0.67 -1.04,-0.98 -0.22,0.13 -0.14,0.31 -0.35,0.6 -0.28,0.02 -0.95,-0.01 -1.19,-0.13 -0.36,-0.17 -0.24,-0.58 -0.12,-0.97 0.25,-0.84 0.42,-0.68 1.31,-1.25 -0.04,-0.28 -0.18,-0.52 0.26,-0.98 0.15,0.24 0.47,1.82 0.59,2.26 0.2,0.75 0.22,0.46 2.16,0.36 0.03,-0.3 -0.35,-0.58 -0.47,-0.79l0.41 -0.73c0.86,0.98 0.5,2.27 0.32,2.41zm-4.11 -4.31c0.23,0.06 0.56,0.16 0.71,0.31l-0.3 0.64 -0.59 -0.21 -0.2 0.33 -0.7 -0.25 0.35 -0.68 0.56 0.21 0.17 -0.34zm-4.57 1.12c0.36,0.7 0.72,1.57 1.04,2.32 0.18,0.41 1.06,2.13 0.59,2.58 -0.35,-0.4 -1.37,-2.74 -1.75,-3.48 -0.31,-0.62 -0.07,-0.73 0.03,-1.4 -0.31,0.07 -1.38,0.48 -1.58,0.65 0.16,0.3 0.52,0.24 0.85,0.41 -0,0.68 -0.24,0.52 0.07,1.14 0.24,0.49 0.22,0.64 0.2,1.23 -0.01,0.26 0.47,0.5 0.63,0.73 0.19,0.27 0.32,0.76 0.36,1.13 -0.27,0.09 -0.72,0.36 -1,0.51 -0.26,0.14 -0.76,0.44 -1.02,0.51l-0.28 -0.93c0.27,-0.38 0.61,-0.93 0.69,-1.48 -0.52,-0.13 -0.9,-0.3 -1.51,-0.35l-0.05 0.23c-0.39,-0.03 -0.95,-0.01 -1.2,-0.22 -0.18,-0.15 -0.42,-0.68 -0.41,-1 0.89,-0.06 1.76,0.2 2.56,0.49 0.26,0.09 0.51,0.23 0.76,0.31 0.13,-1.14 -0.81,-1.72 -0.87,-1.87 -0.09,-0.2 0.04,-0.54 0.07,-0.77 -0.53,0.17 -1.2,0.57 -1.7,0.81 -1.58,0.79 -3.23,1.93 -4.53,3.03l-1.98 1.8c-2.85,2.8 -4.85,6.01 -6.29,9.99 -1.13,2.84 -1.52,6.76 -1.62,8.74l6.11 -0.02c0.02,-0.84 0.09,-1.78 0.25,-2.78 0.14,-0.89 0.41,-1.78 0.56,-2.61 -0.67,0.28 -0.94,0.42 -1.62,-0.03 -0.22,-0.15 -1.06,-0.89 -0.92,-1.2 0.2,0.09 0.52,0.49 0.88,0.69 1.36,0.76 1.95,-1.69 1.9,-2.73 -0.51,0.14 -0.77,0.65 -1.07,1.04 -0.13,-0.08 -0.57,-0.5 -0.59,-0.63 -0.02,-0.16 0.16,-0.48 0.25,-0.64 0.1,-0.19 0.05,-0.07 0.15,-0.21 0.62,-0.82 0.08,-0.87 -0.2,-1.69 -0.34,-0.99 0.2,-1.26 1.09,-0.95 0.11,0.04 0.92,0.26 0.93,0.27 0.08,0.06 0.4,0.71 0.42,0.84 -0.25,0.27 -0.99,0.73 -1.4,0.86 0.23,0.54 0.27,0.56 0.66,0.91 0.51,0.46 0.36,0.19 0.42,1.07 0.06,-0.21 0.5,-0.95 0.63,-1.21 3.26,-6.47 9.37,-10.66 16.89,-11.5l0.02 -0.06c0.05,-0.22 0.23,-0.5 0.39,-0.65l0.53 0.26 0.23 -0.32 0.65 0.33c-0.07,0.19 -0.11,0.15 -0.15,0.34 5.72,-0.04 10.08,1.79 14.08,5.09 0.64,0.53 1.27,1.28 1.87,1.87 0.5,0.49 1.6,1.92 2,2.55l0.21 0.31c0.04,-0.49 0.19,-0.89 0.42,-1.22 0.12,-0.18 0.2,-0.27 0.37,-0.39 0.1,-0.07 0.14,-0.09 0.25,-0.15l0.22 -0.17c-0.26,-0.1 -0.39,-0.08 -0.59,-0.25 -0.23,-0.2 -0.17,-0.32 -0.4,-0.51 -0.69,-0.56 0.19,-1.15 -0.14,-1.13 -0.06,0 -0.08,0.02 -0.13,0.04 -0.29,0.14 -0.46,0.28 -0.76,0.09 -0.38,-0.23 -1.65,-1.07 -1.01,-1.57 0.09,-0.07 0.8,-0.64 0.93,-0.48 0.07,0.2 -0.09,0.18 -0.21,0.41 0.03,0.4 0.43,0.61 0.66,0.81 0.86,0.74 0.96,0.24 1.5,-0.61 0.3,-0.47 0.43,-0.47 1,-0.51 -0.15,0.39 -1.44,1.75 -1.36,2.09l0.79 0.99c0.44,0.42 0.78,0.37 1.44,0.25l0.06 0.27c-0.53,0.41 -1.01,0.26 -1.53,0.35 -0.46,0.08 -0.82,0.6 -0.79,1.17 0.26,-0.1 0.41,-0.44 0.82,-0.62 0.71,-0.3 1.09,0.17 1.45,0.6 0.12,0.14 0.18,0.33 0.27,0.48 0.17,0.29 0.45,0.68 0.69,0.79 0.38,-0.69 0.08,-0.47 0.05,-0.96 0.24,-0.03 0.9,-0.22 1.08,-0.15 0.17,0.07 0.45,0.48 0.52,0.79 0.22,1.07 -0.19,1.48 -1.22,1.38 0.02,0.33 0.38,1.05 0.55,1.38 0.22,0.44 0.96,0.27 1.49,0.47 1.5,0.56 -0.32,1.5 -0.74,2.02l-0.95 -0.11c-0.08,-0.69 0.08,-1.13 0.08,-1.7 -0.85,-0.05 -0.66,-0.27 -1,-0.92 -0.32,-0.62 -0.5,-0.7 -0.34,-1.53 -0.43,-0.34 -0.74,-0.56 -1.02,-1.05 -0.16,-0.28 -0.74,-1.21 -1.09,-1.02 -0.23,0.24 -0.27,0.39 -0.37,0.83l-0.72 0.24 1.05 2.2c0.33,0.73 0.91,2.19 1.15,3.01 0.62,2.61 0.69,3.02 0.8,5.15l6.1 0.01c0.08,-1.51 -0.46,-5.33 -1.04,-6.94 -1.13,-3.77 -2.76,-7.22 -5.25,-10.1 -0.09,-0.1 -0.13,-0.18 -0.22,-0.28 -0.83,-0.89 -1.63,-1.78 -2.56,-2.58 -0.11,-0.09 -0.18,-0.13 -0.28,-0.23 -3.13,-2.89 -8.39,-5.42 -13.11,-6.22 -3.62,-0.57 -7.84,-0.68 -11.55,0.43 -0.47,0.11 -2.25,0.64 -2.62,0.84z"/>
    <path class="fil2" d="M13.1 74.74l1.76 3.09 1.76 3.09 -3.51 0 -3.51 0 1.76 -3.09 1.76 -3.09zm2.61 0.96l-0.61 3.52 -0.61 3.52 -2.69 -2.3 -2.69 -2.3 3.3 -1.22 3.3 -1.22zm1.39 2.44l-2.69 2.3 -2.69 2.3 -0.61 -3.52 -0.61 -3.52 3.3 1.22 3.3 1.22z"/>
    <polygon class="fil0" points="9.11,78.14 10.98,78.48 10.81,77.52 "/>
    <polygon class="fil0" points="9.59,80.92 11.24,79.96 10.5,79.33 "/>
    <polygon class="fil0" points="11.72,82.74 12.37,80.92 11.4,80.92 "/>
    <polygon class="fil0" points="14.49,82.74 13.1,81.55 13.84,80.92 "/>
    <polygon class="fil0" points="16.62,80.92 14.81,80.92 14.97,79.96 "/>
    <polygon class="fil0" points="17.1,78.14 15.71,79.33 15.23,78.48 "/>
    <polygon class="fil0" points="10.5,75.7 12.2,76.33 11.72,77.18 "/>
    <polygon class="fil0" points="13.1,74.74 14.01,76.33 13.1,76.67 "/>
    <polygon class="fil0" points="15.71,75.7 14.49,77.18 15.4,77.52 "/>
    <path class="fil10" d="M47.48 31.52c0.07,-0.09 0.11,-0.05 0.03,-0.42 -0.04,-0.18 -0.07,-0.31 -0.11,-0.49 -0.48,0.76 -1.63,0.92 -0.69,0.97 0.24,0.01 0.6,0.04 0.77,-0.05z"/>
    <path class="fil10" d="M30.39 44.11c0.36,-0.09 0.77,-0.31 0.97,-0.55 -0.34,-0.1 -0.65,-0.19 -1.02,-0.09 -0.07,0.25 -0.06,0.37 0.05,0.63z"/>
    <path class="fil10" d="M64.86 35.48c0.03,0.29 0.29,0.8 0.47,0.97 0.21,-0.26 0.51,-1.34 -0.47,-0.97z"/>
    <path class="fil10" d="M74.49 48.74c0.33,-0.2 0.7,-0.38 0.59,-0.94l-0.45 -0.14 -0.14 0.53c-0.03,0.23 -0.04,0.32 -0,0.55z"/>
    <path class="fil10" d="M57.02 31.79c0.05,0.32 0.67,0.87 0.87,1.04 -0.03,-0.24 -0.09,-0.16 -0.15,-0.76l-0.08 -0.32 -0.63 0.04z"/>
    <polygon class="fil10" points="40.72,34.73 41.7,34.24 41.17,33.81 "/>
   </g>
   <path class="fil11" d="M121.9 52.78l0 -13.86 4.48 0c1.7,0 2.8,0.07 3.32,0.21 0.79,0.21 1.46,0.66 1.99,1.36 0.53,0.7 0.8,1.6 0.8,2.7 0,0.85 -0.15,1.56 -0.46,2.15 -0.31,0.58 -0.7,1.03 -1.17,1.37 -0.47,0.33 -0.96,0.55 -1.45,0.65 -0.67,0.13 -1.63,0.2 -2.89,0.2l-1.82 0 0 5.23 -2.8 0zm2.8 -11.52l0 3.95 1.52 0c1.1,0 1.83,-0.07 2.2,-0.22 0.37,-0.15 0.66,-0.37 0.87,-0.68 0.21,-0.31 0.32,-0.67 0.32,-1.08 0,-0.51 -0.15,-0.92 -0.44,-1.25 -0.3,-0.33 -0.67,-0.54 -1.12,-0.62 -0.33,-0.06 -1,-0.09 -2,-0.09l-1.34 0zm9.51 4.67c0,-1.41 0.21,-2.6 0.63,-3.56 0.31,-0.71 0.74,-1.34 1.29,-1.9 0.54,-0.56 1.14,-0.98 1.79,-1.25 0.86,-0.37 1.86,-0.55 2.99,-0.55 2.04,0 3.67,0.64 4.9,1.9 1.22,1.27 1.84,3.03 1.84,5.3 0,2.24 -0.61,4 -1.82,5.26 -1.22,1.27 -2.84,1.9 -4.87,1.9 -2.06,0 -3.7,-0.63 -4.91,-1.89 -1.21,-1.26 -1.82,-2.99 -1.82,-5.21zm2.88 -0.09c0,1.57 0.36,2.76 1.09,3.57 0.73,0.81 1.65,1.22 2.76,1.22 1.12,0 2.03,-0.4 2.75,-1.21 0.72,-0.81 1.07,-2.01 1.07,-3.62 0,-1.59 -0.35,-2.78 -1.05,-3.56 -0.7,-0.79 -1.62,-1.18 -2.78,-1.18 -1.15,0 -2.08,0.4 -2.79,1.19 -0.71,0.79 -1.06,1.99 -1.06,3.58zm12.73 6.94l0 -13.86 2.71 0 5.7 9.29 0 -9.29 2.59 0 0 13.86 -2.8 0 -5.61 -9.11 0 9.11 -2.59 0zm13.96 -13.86l5.1 0c1.15,0 2.03,0.09 2.63,0.26 0.81,0.24 1.51,0.66 2.08,1.28 0.58,0.61 1.02,1.36 1.32,2.24 0.3,0.88 0.45,1.98 0.45,3.27 0,1.14 -0.14,2.12 -0.43,2.95 -0.35,1.01 -0.84,1.83 -1.48,2.45 -0.48,0.47 -1.14,0.84 -1.96,1.11 -0.61,0.2 -1.44,0.29 -2.47,0.29l-5.25 0 0 -13.86zm2.8 2.34l0 9.18 2.08 0c0.78,0 1.34,-0.05 1.68,-0.13 0.45,-0.11 0.83,-0.31 1.12,-0.58 0.3,-0.27 0.54,-0.72 0.73,-1.34 0.19,-0.62 0.28,-1.47 0.28,-2.54 0,-1.07 -0.09,-1.89 -0.28,-2.46 -0.19,-0.57 -0.45,-1.02 -0.79,-1.34 -0.34,-0.32 -0.77,-0.54 -1.29,-0.65 -0.39,-0.09 -1.15,-0.13 -2.28,-0.13l-1.25 0zm10.58 4.67c0,-1.41 0.21,-2.6 0.63,-3.56 0.31,-0.71 0.74,-1.34 1.29,-1.9 0.54,-0.56 1.14,-0.98 1.79,-1.25 0.86,-0.37 1.86,-0.55 2.99,-0.55 2.04,0 3.67,0.64 4.9,1.9 1.22,1.27 1.84,3.03 1.84,5.3 0,2.24 -0.61,4 -1.82,5.26 -1.21,1.27 -2.84,1.9 -4.87,1.9 -2.06,0 -3.7,-0.63 -4.91,-1.89 -1.21,-1.26 -1.82,-2.99 -1.82,-5.21zm2.88 -0.09c0,1.57 0.36,2.76 1.09,3.57 0.73,0.81 1.65,1.22 2.76,1.22 1.12,0 2.03,-0.4 2.75,-1.21 0.72,-0.81 1.07,-2.01 1.07,-3.62 0,-1.59 -0.35,-2.78 -1.05,-3.56 -0.7,-0.79 -1.62,-1.18 -2.78,-1.18 -1.15,0 -2.08,0.4 -2.79,1.19 -0.71,0.79 -1.06,1.99 -1.06,3.58zm12.77 6.94l0 -13.86 2.8 0 0 6.14 5.65 -6.14 3.76 0 -5.22 5.4 5.49 8.46 -3.62 0 -3.81 -6.51 -2.25 2.32 0 4.19 -2.8 0zm19.29 0l0 -13.86 4.48 0c1.7,0 2.8,0.07 3.32,0.21 0.79,0.21 1.46,0.66 1.99,1.36 0.53,0.7 0.8,1.6 0.8,2.7 0,0.85 -0.15,1.56 -0.46,2.15 -0.31,0.58 -0.7,1.03 -1.17,1.37 -0.47,0.33 -0.96,0.55 -1.45,0.65 -0.67,0.13 -1.63,0.2 -2.89,0.2l-1.82 0 0 5.23 -2.8 0zm2.8 -11.52l0 3.95 1.52 0c1.1,0 1.83,-0.07 2.2,-0.22 0.37,-0.15 0.66,-0.37 0.87,-0.68 0.21,-0.31 0.32,-0.67 0.32,-1.08 0,-0.51 -0.15,-0.92 -0.44,-1.25 -0.3,-0.33 -0.67,-0.54 -1.12,-0.62 -0.33,-0.06 -1,-0.09 -2,-0.09l-1.34 0zm10.09 11.52l0 -13.86 10.24 0 0 2.34 -7.44 0 0 3.08 6.92 0 0 2.34 -6.92 0 0 3.76 7.71 0 0 2.34 -10.52 0zm12.16 -4.49l2.73 -0.27c0.16,0.91 0.49,1.58 0.99,2.01 0.5,0.43 1.17,0.64 2.02,0.64 0.9,0 1.57,-0.19 2.03,-0.57 0.45,-0.38 0.68,-0.83 0.68,-1.34 0,-0.33 -0.1,-0.61 -0.29,-0.84 -0.19,-0.23 -0.52,-0.43 -1,-0.6 -0.33,-0.12 -1.07,-0.32 -2.23,-0.61 -1.49,-0.37 -2.54,-0.83 -3.14,-1.38 -0.85,-0.76 -1.27,-1.7 -1.27,-2.8 0,-0.71 0.2,-1.37 0.59,-1.99 0.4,-0.62 0.97,-1.08 1.72,-1.41 0.75,-0.32 1.65,-0.48 2.72,-0.48 1.73,0 3.03,0.38 3.91,1.15 0.88,0.77 1.33,1.8 1.38,3.08l-2.8 0.1c-0.12,-0.72 -0.37,-1.23 -0.76,-1.54 -0.39,-0.31 -0.98,-0.47 -1.76,-0.47 -0.81,0 -1.44,0.17 -1.89,0.5 -0.29,0.22 -0.44,0.5 -0.44,0.86 0,0.33 0.14,0.61 0.42,0.84 0.35,0.3 1.21,0.61 2.56,0.93 1.36,0.32 2.36,0.65 3.01,1 0.65,0.34 1.16,0.81 1.53,1.41 0.37,0.6 0.55,1.33 0.55,2.21 0,0.79 -0.22,1.54 -0.66,2.23 -0.44,0.69 -1.06,1.21 -1.87,1.55 -0.81,0.34 -1.81,0.51 -3.01,0.51 -1.75,0 -3.09,-0.4 -4.03,-1.21 -0.94,-0.81 -1.5,-1.98 -1.68,-3.53zm26.1 4.49l-3.02 0 -1.2 -3.15 -5.55 0 -1.15 3.15 -2.96 0 5.37 -13.86 2.96 0 5.54 13.86zm-5.12 -5.5l-1.92 -5.13 -1.87 5.13 3.79 0zm6.61 5.5l0 -13.86 2.71 0 5.7 9.29 0 -9.29 2.59 0 0 13.86 -2.8 0 -5.61 -9.11 0 9.11 -2.59 0zm17.07 0l0 -11.52 -4.1 0 0 -2.34 10.98 0 0 2.34 -4.08 0 0 11.52 -2.8 0zm8.7 0l0 -13.86 5.89 0c1.48,0 2.55,0.13 3.22,0.37 0.67,0.25 1.21,0.69 1.61,1.33 0.4,0.64 0.61,1.36 0.61,2.18 0,1.04 -0.3,1.9 -0.91,2.58 -0.61,0.68 -1.52,1.1 -2.73,1.28 0.6,0.35 1.1,0.74 1.49,1.16 0.39,0.42 0.92,1.17 1.58,2.25l1.69 2.7 -3.34 0 -2 -3.02c-0.72,-1.07 -1.21,-1.75 -1.48,-2.03 -0.26,-0.28 -0.54,-0.47 -0.84,-0.57 -0.3,-0.1 -0.77,-0.15 -1.41,-0.15l-0.57 0 0 5.79 -2.8 0zm2.8 -7.99l2.07 0c1.34,0 2.18,-0.06 2.51,-0.17 0.33,-0.11 0.6,-0.31 0.78,-0.59 0.19,-0.28 0.28,-0.63 0.28,-1.04 0,-0.47 -0.13,-0.84 -0.37,-1.13 -0.25,-0.29 -0.6,-0.47 -1.05,-0.54 -0.23,-0.03 -0.91,-0.05 -2.04,-0.05l-2.18 0 0 3.52zm11.16 7.99l0 -13.86 10.25 0 0 2.34 -7.44 0 0 3.08 6.92 0 0 2.34 -6.92 0 0 3.76 7.71 0 0 2.34 -10.52 0zm12.9 0l0 -13.86 2.71 0 5.7 9.29 0 -9.29 2.59 0 0 13.86 -2.8 0 -5.61 -9.11 0 9.11 -2.59 0zm19.29 0l0 -13.86 4.2 0 2.48 9.45 2.45 -9.45 4.21 0 0 13.86 -2.59 0 -0.01 -10.91 -2.73 10.91 -2.69 0 -2.72 -10.91 -0.01 10.91 -2.59 0zm15.56 -6.85c0,-1.41 0.21,-2.6 0.63,-3.56 0.31,-0.71 0.74,-1.34 1.29,-1.9 0.54,-0.56 1.14,-0.98 1.79,-1.25 0.86,-0.37 1.86,-0.55 2.99,-0.55 2.04,0 3.67,0.64 4.9,1.9 1.23,1.27 1.84,3.03 1.84,5.3 0,2.24 -0.61,4 -1.82,5.26 -1.22,1.27 -2.84,1.9 -4.87,1.9 -2.06,0 -3.7,-0.63 -4.91,-1.89 -1.22,-1.26 -1.82,-2.99 -1.82,-5.21zm2.88 -0.09c0,1.57 0.36,2.76 1.09,3.57 0.73,0.81 1.65,1.22 2.76,1.22 1.12,0 2.03,-0.4 2.75,-1.21 0.72,-0.81 1.07,-2.01 1.07,-3.62 0,-1.59 -0.35,-2.78 -1.05,-3.56 -0.7,-0.79 -1.62,-1.18 -2.78,-1.18 -1.15,0 -2.09,0.4 -2.79,1.19 -0.71,0.79 -1.06,1.99 -1.06,3.58zm12.73 -6.92l5.1 0c1.15,0 2.03,0.09 2.63,0.26 0.81,0.24 1.5,0.66 2.08,1.28 0.58,0.61 1.02,1.36 1.32,2.24 0.3,0.88 0.45,1.98 0.45,3.27 0,1.14 -0.14,2.12 -0.43,2.95 -0.34,1.01 -0.84,1.83 -1.48,2.45 -0.48,0.47 -1.14,0.84 -1.96,1.11 -0.62,0.2 -1.44,0.29 -2.47,0.29l-5.25 0 0 -13.86zm2.8 2.34l0 9.18 2.08 0c0.78,0 1.34,-0.05 1.68,-0.13 0.45,-0.11 0.83,-0.31 1.12,-0.58 0.3,-0.27 0.54,-0.72 0.73,-1.34 0.19,-0.62 0.28,-1.47 0.28,-2.54 0,-1.07 -0.09,-1.89 -0.28,-2.46 -0.19,-0.57 -0.45,-1.02 -0.79,-1.34 -0.34,-0.32 -0.77,-0.54 -1.29,-0.65 -0.39,-0.09 -1.15,-0.13 -2.29,-0.13l-1.25 0zm11.16 11.52l0 -13.86 10.24 0 0 2.34 -7.44 0 0 3.08 6.92 0 0 2.34 -6.92 0 0 3.76 7.71 0 0 2.34 -10.52 0zm12.89 0l0 -13.86 5.89 0c1.48,0 2.55,0.13 3.23,0.37 0.67,0.25 1.21,0.69 1.61,1.33 0.4,0.64 0.61,1.36 0.61,2.18 0,1.04 -0.3,1.9 -0.91,2.58 -0.61,0.68 -1.52,1.1 -2.73,1.28 0.6,0.35 1.1,0.74 1.49,1.16 0.39,0.42 0.92,1.17 1.58,2.25l1.69 2.7 -3.34 0 -2 -3.02c-0.72,-1.07 -1.21,-1.75 -1.48,-2.03 -0.26,-0.28 -0.54,-0.47 -0.84,-0.57 -0.3,-0.1 -0.77,-0.15 -1.41,-0.15l-0.57 0 0 5.79 -2.8 0zm2.8 -7.99l2.07 0c1.34,0 2.17,-0.06 2.51,-0.17 0.33,-0.11 0.6,-0.31 0.78,-0.59 0.19,-0.28 0.28,-0.63 0.28,-1.04 0,-0.47 -0.13,-0.84 -0.37,-1.13 -0.25,-0.29 -0.6,-0.47 -1.05,-0.54 -0.23,-0.03 -0.91,-0.05 -2.04,-0.05l-2.18 0 0 3.52zm11.16 7.99l0 -13.86 2.71 0 5.7 9.29 0 -9.29 2.59 0 0 13.86 -2.8 0 -5.61 -9.11 0 9.11 -2.59 0z"/>
   <path class="fil11" d="M121.97 71.48l0 -11.67 2.31 0 2.76 8.26c0.26,0.77 0.44,1.34 0.56,1.73 0.13,-0.42 0.34,-1.05 0.62,-1.87l2.8 -8.11 2.06 0 0 11.67 -1.48 0 0 -9.76 -3.4 9.76 -1.39 0 -3.36 -9.94 0 9.94 -1.48 0zm21.22 -11.67l1.55 0 0 6.74c0,1.17 -0.13,2.11 -0.4,2.79 -0.27,0.69 -0.74,1.25 -1.43,1.68 -0.69,0.43 -1.6,0.65 -2.72,0.65 -1.09,0 -1.98,-0.19 -2.67,-0.56 -0.69,-0.38 -1.19,-0.92 -1.48,-1.63 -0.3,-0.72 -0.44,-1.69 -0.44,-2.93l0 -6.74 1.55 0 0 6.73c0,1.01 0.1,1.76 0.28,2.24 0.19,0.48 0.51,0.85 0.97,1.11 0.46,0.26 1.01,0.39 1.67,0.39 1.13,0 1.93,-0.26 2.41,-0.77 0.48,-0.52 0.72,-1.5 0.72,-2.97l0 -6.73zm4.19 11.67l0 -11.67 1.55 0 0 4.81 6.02 0 0 -4.81 1.55 0 0 11.67 -1.55 0 0 -5.49 -6.02 0 0 5.49 -1.55 0zm10.41 0l4.47 -11.67 1.7 0 4.74 11.67 -1.76 0 -1.35 -3.54 -4.91 0 -1.26 3.54 -1.64 0zm3.35 -4.79l3.97 0 -1.21 -3.24c-0.37,-0.98 -0.64,-1.79 -0.84,-2.44 -0.16,0.76 -0.37,1.51 -0.64,2.25l-1.28 3.42zm8.75 4.79l0 -11.67 2.31 0 2.76 8.26c0.25,0.77 0.44,1.34 0.56,1.73 0.13,-0.42 0.34,-1.05 0.62,-1.87l2.8 -8.11 2.06 0 0 11.67 -1.48 0 0 -9.76 -3.4 9.76 -1.39 0 -3.36 -9.94 0 9.94 -1.48 0zm13.56 0l0 -11.67 2.31 0 2.76 8.26c0.26,0.77 0.44,1.34 0.56,1.73 0.13,-0.42 0.34,-1.05 0.62,-1.87l2.8 -8.11 2.06 0 0 11.67 -1.48 0 0 -9.76 -3.4 9.76 -1.39 0 -3.36 -9.94 0 9.94 -1.48 0zm12.31 0l4.47 -11.67 1.7 0 4.74 11.67 -1.76 0 -1.35 -3.54 -4.91 0 -1.26 3.54 -1.63 0zm3.35 -4.79l3.97 0 -1.22 -3.24c-0.37,-0.98 -0.64,-1.79 -0.84,-2.44 -0.16,0.76 -0.37,1.51 -0.64,2.25l-1.28 3.42zm8.78 4.79l0 -11.67 4.02 0c0.91,0 1.6,0.05 2.07,0.17 0.67,0.15 1.24,0.43 1.71,0.84 0.62,0.52 1.07,1.18 1.38,1.99 0.31,0.81 0.46,1.74 0.46,2.78 0,0.89 -0.1,1.67 -0.31,2.35 -0.21,0.68 -0.47,1.25 -0.8,1.7 -0.32,0.45 -0.68,0.8 -1.06,1.06 -0.38,0.26 -0.85,0.45 -1.39,0.59 -0.54,0.13 -1.17,0.2 -1.87,0.2l-4.2 0zm1.55 -1.37l2.48 0c0.77,0 1.37,-0.07 1.81,-0.21 0.44,-0.14 0.78,-0.35 1.05,-0.61 0.36,-0.37 0.65,-0.86 0.85,-1.48 0.2,-0.62 0.31,-1.37 0.31,-2.25 0,-1.22 -0.2,-2.16 -0.6,-2.82 -0.4,-0.66 -0.89,-1.1 -1.46,-1.32 -0.41,-0.16 -1.08,-0.24 -1.99,-0.24l-2.44 0 0 8.93zm10.47 1.37l0 -11.67 1.54 0 0 11.67 -1.54 0zm7.55 0l0 -4.94 -4.49 -6.72 1.86 0 2.3 3.53c0.43,0.65 0.83,1.31 1.19,1.96 0.35,-0.61 0.79,-1.3 1.29,-2.06l2.26 -3.44 1.8 0 -4.65 6.72 0 4.94 -1.55 0zm5.08 0l4.47 -11.67 1.7 0 4.74 11.67 -1.76 0 -1.35 -3.54 -4.91 0 -1.26 3.54 -1.64 0zm3.35 -4.79l3.97 0 -1.21 -3.24c-0.37,-0.98 -0.64,-1.79 -0.84,-2.44 -0.16,0.76 -0.37,1.51 -0.64,2.25l-1.28 3.42zm8.85 4.79l0 -11.67 1.55 0 0 4.81 6.02 0 0 -4.81 1.55 0 0 11.67 -1.55 0 0 -5.49 -6.02 0 0 5.49 -1.55 0zm16.14 0l0 -11.67 4.37 0c0.89,0 1.6,0.12 2.14,0.35 0.54,0.24 0.96,0.6 1.26,1.09 0.31,0.49 0.46,1 0.46,1.54 0,0.5 -0.13,0.97 -0.4,1.41 -0.27,0.44 -0.67,0.8 -1.22,1.07 0.71,0.21 1.25,0.56 1.62,1.06 0.38,0.5 0.57,1.09 0.57,1.77 0,0.55 -0.12,1.06 -0.35,1.53 -0.23,0.47 -0.51,0.83 -0.85,1.09 -0.34,0.25 -0.76,0.45 -1.27,0.57 -0.51,0.13 -1.14,0.2 -1.88,0.2l-4.44 0zm1.55 -6.76l2.52 0c0.68,0 1.18,-0.05 1.47,-0.14 0.39,-0.12 0.69,-0.31 0.89,-0.58 0.2,-0.27 0.3,-0.61 0.3,-1.02 0,-0.39 -0.09,-0.73 -0.28,-1.02 -0.18,-0.3 -0.45,-0.5 -0.79,-0.61 -0.34,-0.11 -0.94,-0.16 -1.77,-0.16l-2.33 0 0 3.54zm0 5.39l2.9 0c0.5,0 0.85,-0.02 1.05,-0.06 0.35,-0.06 0.65,-0.17 0.89,-0.32 0.24,-0.15 0.43,-0.37 0.59,-0.65 0.15,-0.29 0.23,-0.61 0.23,-0.99 0,-0.44 -0.11,-0.81 -0.34,-1.14 -0.22,-0.32 -0.53,-0.55 -0.93,-0.68 -0.39,-0.13 -0.96,-0.2 -1.7,-0.2l-2.7 0 0 4.02zm8.9 -4.31c0,-1.93 0.52,-3.45 1.56,-4.54 1.04,-1.09 2.38,-1.64 4.02,-1.64 1.08,0 2.05,0.26 2.91,0.77 0.86,0.51 1.52,1.23 1.97,2.15 0.45,0.92 0.68,1.96 0.68,3.13 0,1.18 -0.24,2.24 -0.72,3.17 -0.48,0.93 -1.15,1.64 -2.03,2.12 -0.88,0.48 -1.82,0.72 -2.83,0.72 -1.1,0 -2.08,-0.27 -2.94,-0.8 -0.86,-0.53 -1.52,-1.25 -1.96,-2.17 -0.45,-0.92 -0.67,-1.89 -0.67,-2.91zm1.59 0.03c0,1.4 0.38,2.51 1.13,3.32 0.75,0.81 1.7,1.21 2.84,1.21 1.16,0 2.11,-0.41 2.86,-1.22 0.75,-0.82 1.12,-1.97 1.12,-3.47 0,-0.95 -0.16,-1.78 -0.48,-2.48 -0.32,-0.71 -0.79,-1.26 -1.41,-1.64 -0.62,-0.39 -1.31,-0.58 -2.08,-0.58 -1.09,0 -2.03,0.37 -2.81,1.12 -0.79,0.75 -1.18,2 -1.18,3.75zm10.26 5.65l4.47 -11.67 1.69 0 4.74 11.67 -1.76 0 -1.35 -3.54 -4.91 0 -1.26 3.54 -1.63 0zm3.35 -4.79l3.97 0 -1.22 -3.24c-0.37,-0.98 -0.64,-1.79 -0.84,-2.44 -0.16,0.76 -0.37,1.51 -0.64,2.25l-1.28 3.42zm8.81 4.79l0 -11.67 5.16 0c1.04,0 1.83,0.11 2.37,0.32 0.54,0.21 0.97,0.58 1.29,1.11 0.32,0.53 0.48,1.12 0.48,1.76 0,0.83 -0.27,1.53 -0.8,2.09 -0.53,0.57 -1.36,0.93 -2.48,1.08 0.41,0.2 0.72,0.39 0.93,0.58 0.45,0.41 0.88,0.93 1.28,1.55l2.01 3.18 -1.93 0 -1.54 -2.43c-0.45,-0.7 -0.82,-1.24 -1.11,-1.61 -0.29,-0.37 -0.55,-0.63 -0.78,-0.78 -0.23,-0.15 -0.46,-0.25 -0.7,-0.31 -0.17,-0.04 -0.46,-0.05 -0.86,-0.05l-1.78 0 0 5.18 -1.55 0zm1.55 -6.52l3.31 0c0.71,0 1.25,-0.07 1.65,-0.22 0.4,-0.14 0.7,-0.38 0.9,-0.7 0.21,-0.32 0.31,-0.67 0.31,-1.04 0,-0.55 -0.2,-1.01 -0.6,-1.36 -0.4,-0.36 -1.03,-0.53 -1.89,-0.53l-3.68 0 0 3.86zm10.17 6.52l0 -11.67 4.02 0c0.91,0 1.6,0.05 2.08,0.17 0.67,0.15 1.24,0.43 1.71,0.84 0.62,0.52 1.07,1.18 1.38,1.99 0.31,0.81 0.46,1.74 0.46,2.78 0,0.89 -0.1,1.67 -0.31,2.35 -0.21,0.68 -0.47,1.25 -0.8,1.7 -0.33,0.45 -0.68,0.8 -1.06,1.06 -0.38,0.26 -0.85,0.45 -1.39,0.59 -0.55,0.13 -1.17,0.2 -1.87,0.2l-4.21 0zm1.55 -1.37l2.48 0c0.77,0 1.37,-0.07 1.81,-0.21 0.44,-0.14 0.78,-0.35 1.04,-0.61 0.36,-0.37 0.65,-0.86 0.85,-1.48 0.2,-0.62 0.31,-1.37 0.31,-2.25 0,-1.22 -0.2,-2.16 -0.6,-2.82 -0.4,-0.66 -0.88,-1.1 -1.46,-1.32 -0.41,-0.16 -1.08,-0.24 -1.99,-0.24l-2.44 0 0 8.93zm10.47 1.37l0 -11.67 1.54 0 0 11.67 -1.54 0zm4.24 0l0 -11.67 1.58 0 6.11 9.16 0 -9.16 1.48 0 0 11.67 -1.58 0 -6.11 -9.16 0 9.16 -1.48 0zm17.22 -4.58l0 -1.37 4.93 0 0 4.32c-0.76,0.6 -1.54,1.06 -2.34,1.36 -0.81,0.3 -1.63,0.46 -2.48,0.46 -1.15,0 -2.18,-0.25 -3.12,-0.74 -0.93,-0.49 -1.64,-1.2 -2.11,-2.13 -0.48,-0.93 -0.72,-1.97 -0.72,-3.11 0,-1.13 0.24,-2.19 0.71,-3.18 0.48,-0.98 1.16,-1.71 2.05,-2.19 0.89,-0.48 1.91,-0.72 3.08,-0.72 0.84,0 1.6,0.14 2.28,0.41 0.68,0.27 1.22,0.65 1.6,1.14 0.39,0.49 0.68,1.13 0.88,1.91l-1.39 0.38c-0.18,-0.59 -0.39,-1.06 -0.65,-1.4 -0.26,-0.34 -0.63,-0.61 -1.11,-0.82 -0.48,-0.2 -1.01,-0.31 -1.6,-0.31 -0.7,0 -1.31,0.11 -1.83,0.32 -0.51,0.21 -0.93,0.5 -1.24,0.85 -0.32,0.35 -0.56,0.74 -0.73,1.15 -0.3,0.73 -0.45,1.51 -0.45,2.35 0,1.04 0.18,1.91 0.53,2.62 0.36,0.7 0.88,1.22 1.56,1.56 0.68,0.34 1.41,0.51 2.18,0.51 0.67,0 1.32,-0.13 1.95,-0.39 0.63,-0.26 1.11,-0.54 1.44,-0.83l0 -2.19 -3.42 0zm11.22 0.83l1.45 -0.13c0.07,0.59 0.23,1.07 0.48,1.44 0.25,0.38 0.64,0.68 1.17,0.91 0.53,0.23 1.13,0.35 1.79,0.35 0.59,0 1.11,-0.09 1.56,-0.26 0.45,-0.18 0.78,-0.42 1,-0.73 0.22,-0.31 0.33,-0.64 0.33,-1 0,-0.36 -0.11,-0.68 -0.32,-0.96 -0.21,-0.27 -0.56,-0.5 -1.05,-0.69 -0.31,-0.12 -1,-0.31 -2.07,-0.57 -1.07,-0.26 -1.82,-0.5 -2.25,-0.73 -0.56,-0.29 -0.97,-0.66 -1.24,-1.09 -0.27,-0.43 -0.41,-0.92 -0.41,-1.45 0,-0.59 0.17,-1.14 0.5,-1.65 0.33,-0.51 0.82,-0.9 1.46,-1.17 0.64,-0.27 1.35,-0.4 2.14,-0.4 0.86,0 1.62,0.14 2.28,0.42 0.66,0.28 1.17,0.69 1.52,1.23 0.35,0.54 0.54,1.15 0.57,1.84l-1.48 0.11c-0.08,-0.74 -0.35,-1.29 -0.81,-1.67 -0.46,-0.38 -1.14,-0.56 -2.03,-0.56 -0.93,0 -1.61,0.17 -2.04,0.51 -0.43,0.34 -0.64,0.76 -0.64,1.24 0,0.42 0.15,0.76 0.45,1.04 0.3,0.27 1.07,0.55 2.32,0.83 1.25,0.29 2.11,0.53 2.58,0.74 0.68,0.31 1.18,0.71 1.5,1.19 0.32,0.48 0.48,1.03 0.48,1.65 0,0.62 -0.18,1.2 -0.53,1.75 -0.36,0.55 -0.86,0.98 -1.53,1.28 -0.66,0.3 -1.41,0.46 -2.24,0.46 -1.05,0 -1.93,-0.15 -2.65,-0.46 -0.71,-0.31 -1.27,-0.77 -1.67,-1.39 -0.41,-0.62 -0.62,-1.31 -0.64,-2.09zm19.66 -0.35l1.55 0.39c-0.32,1.27 -0.9,2.23 -1.74,2.9 -0.84,0.66 -1.86,1 -3.08,1 -1.25,0 -2.27,-0.26 -3.06,-0.77 -0.79,-0.51 -1.38,-1.25 -1.79,-2.22 -0.41,-0.97 -0.62,-2.01 -0.62,-3.13 0,-1.21 0.23,-2.27 0.69,-3.18 0.46,-0.9 1.12,-1.59 1.98,-2.06 0.85,-0.47 1.8,-0.7 2.82,-0.7 1.17,0 2.15,0.3 2.94,0.89 0.8,0.59 1.35,1.43 1.66,2.5l-1.51 0.36c-0.27,-0.85 -0.66,-1.47 -1.18,-1.85 -0.51,-0.39 -1.16,-0.58 -1.94,-0.58 -0.89,0 -1.64,0.21 -2.24,0.64 -0.6,0.43 -1.02,1.01 -1.26,1.73 -0.24,0.73 -0.37,1.47 -0.37,2.24 0,0.99 0.14,1.86 0.43,2.6 0.29,0.74 0.74,1.29 1.34,1.66 0.61,0.37 1.26,0.55 1.97,0.55 0.86,0 1.59,-0.25 2.19,-0.75 0.6,-0.5 1,-1.24 1.21,-2.22zm3.52 4.09l0 -11.67 1.55 0 0 4.81 6.02 0 0 -4.81 1.54 0 0 11.67 -1.54 0 0 -5.49 -6.02 0 0 5.49 -1.55 0zm11.22 -5.68c0,-1.93 0.52,-3.45 1.56,-4.54 1.04,-1.09 2.38,-1.64 4.02,-1.64 1.08,0 2.05,0.26 2.91,0.77 0.86,0.51 1.52,1.23 1.97,2.15 0.45,0.92 0.68,1.96 0.68,3.13 0,1.18 -0.24,2.24 -0.72,3.17 -0.48,0.93 -1.15,1.64 -2.03,2.12 -0.88,0.48 -1.82,0.72 -2.83,0.72 -1.1,0 -2.08,-0.27 -2.94,-0.8 -0.86,-0.53 -1.52,-1.25 -1.96,-2.17 -0.44,-0.92 -0.67,-1.89 -0.67,-2.91zm1.59 0.03c0,1.4 0.38,2.51 1.13,3.32 0.75,0.81 1.7,1.21 2.84,1.21 1.16,0 2.11,-0.41 2.86,-1.22 0.75,-0.82 1.12,-1.97 1.12,-3.47 0,-0.95 -0.16,-1.78 -0.48,-2.48 -0.32,-0.71 -0.79,-1.26 -1.41,-1.64 -0.62,-0.39 -1.31,-0.58 -2.08,-0.58 -1.09,0 -2.03,0.37 -2.81,1.12 -0.79,0.75 -1.18,2 -1.18,3.75zm11.06 -0.03c0,-1.93 0.52,-3.45 1.56,-4.54 1.04,-1.09 2.38,-1.64 4.02,-1.64 1.08,0 2.05,0.26 2.91,0.77 0.86,0.51 1.52,1.23 1.97,2.15 0.45,0.92 0.68,1.96 0.68,3.13 0,1.18 -0.24,2.24 -0.72,3.17 -0.48,0.93 -1.15,1.64 -2.03,2.12 -0.88,0.48 -1.82,0.72 -2.83,0.72 -1.1,0 -2.08,-0.27 -2.94,-0.8 -0.86,-0.53 -1.52,-1.25 -1.96,-2.17 -0.45,-0.92 -0.67,-1.89 -0.67,-2.91zm1.59 0.03c0,1.4 0.38,2.51 1.13,3.32 0.75,0.81 1.7,1.21 2.84,1.21 1.16,0 2.11,-0.41 2.86,-1.22 0.75,-0.82 1.12,-1.97 1.12,-3.47 0,-0.95 -0.16,-1.78 -0.48,-2.48 -0.32,-0.71 -0.79,-1.26 -1.41,-1.64 -0.62,-0.39 -1.31,-0.58 -2.08,-0.58 -1.09,0 -2.03,0.37 -2.82,1.12 -0.79,0.75 -1.18,2 -1.18,3.75zm11.47 5.65l0 -11.67 1.55 0 0 10.3 5.73 0 0 1.37 -7.28 0z"/>
   <g>
    <path class="fil12" d="M148.72 77.95l0 24.2 -6.88 0 0 -17.3 -4.5 17.3 -4.7 0 -4.64 -17.3 0 17.3 -5.54 0 0 -24.2 9.67 0 3.5 12.85 3.35 -12.85 9.75 0zm4.2 24.2l0 -24.2 12.27 0c2.55,0 4.41,0.64 5.58,1.93 1.16,1.29 1.75,2.76 1.75,4.41 0,1.2 -0.34,2.29 -1.01,3.26 -0.67,0.97 -1.68,1.65 -3.01,2.01 3.12,0.76 4.68,2.64 4.68,5.64 0,1.8 -0.55,3.4 -1.66,4.82 -1.1,1.41 -3.47,2.12 -7.08,2.12l-11.52 0zm6.81 -14.95l3.46 0c0.87,0 1.48,-0.22 1.84,-0.65 0.36,-0.44 0.54,-0.9 0.54,-1.4 0,-1.34 -0.83,-2.01 -2.5,-2.01l-3.33 0 0 4.06zm0 9.58l3.64 0c0.9,0 1.57,-0.22 1.99,-0.67 0.42,-0.44 0.63,-0.95 0.63,-1.51 0,-0.56 -0.2,-1.08 -0.62,-1.54 -0.41,-0.47 -1.17,-0.71 -2.26,-0.71l-3.39 0 0 4.43zm13.97 -1.66l6.88 -1.24c0.58,1.96 2.06,2.94 4.46,2.94 1.86,0 2.79,-0.5 2.79,-1.49 0,-0.52 -0.22,-0.92 -0.65,-1.21 -0.43,-0.29 -1.2,-0.55 -2.31,-0.77 -4.23,-0.81 -6.94,-1.87 -8.15,-3.18 -1.2,-1.31 -1.8,-2.85 -1.8,-4.63 0,-2.28 0.86,-4.18 2.59,-5.69 1.73,-1.51 4.21,-2.27 7.45,-2.27 4.92,0 8.16,1.98 9.74,5.94l-6.12 1.86c-0.64,-1.62 -1.93,-2.43 -3.88,-2.43 -1.62,0 -2.43,0.5 -2.43,1.51 0,0.45 0.18,0.8 0.55,1.05 0.36,0.25 1.07,0.48 2.12,0.7 2.89,0.6 4.95,1.13 6.16,1.6 1.21,0.46 2.23,1.26 3.04,2.41 0.81,1.14 1.21,2.49 1.21,4.04 0,2.45 -0.99,4.44 -2.97,5.96 -1.98,1.52 -4.58,2.29 -7.8,2.29 -5.88,0 -9.52,-2.47 -10.89,-7.39z"/>
    <path class="fil13" d="M214.81 93.37l0 8.78 -7.54 0 0 -24.2 10.31 0c2.57,0 4.53,0.3 5.87,0.89 1.33,0.59 2.4,1.49 3.18,2.72 0.79,1.22 1.18,2.58 1.18,4.09 0,2.31 -0.8,4.17 -2.4,5.59 -1.6,1.42 -3.74,2.13 -6.41,2.13l-4.19 0zm-0.11 -5.19l2.46 0c2.17,0 3.26,-0.82 3.26,-2.45 0,-1.54 -1,-2.3 -3.01,-2.3l-2.71 0 0 4.75zm35.47 -10.23l0 16.02c0,3.03 -0.9,5.22 -2.7,6.55 -1.8,1.33 -4.15,2 -7.04,2 -3.05,0 -5.5,-0.64 -7.34,-1.92 -1.85,-1.28 -2.77,-3.35 -2.77,-6.23l0 -16.41 7.54 0 0 15.53c0,1.16 0.25,2 0.74,2.53 0.49,0.53 1.27,0.8 2.35,0.8 0.89,0 1.63,-0.19 2.2,-0.57 0.57,-0.39 0.92,-0.82 1.03,-1.31 0.11,-0.48 0.17,-1.43 0.17,-2.83l0 -14.15 5.83 0zm25.43 24.2l-8.22 0 -3.56 -9.25 -2.28 0 0 9.25 -7.43 0 0 -24.2 12.62 0c2.78,0 4.94,0.65 6.48,1.96 1.54,1.31 2.31,3.03 2.31,5.17 0,1.4 -0.28,2.63 -0.85,3.7 -0.57,1.07 -1.72,2.01 -3.45,2.83l4.37 10.54zm-14.06 -14.4l3.17 0c0.93,0 1.68,-0.19 2.25,-0.59 0.57,-0.39 0.85,-0.97 0.85,-1.73 0,-1.55 -0.95,-2.33 -2.85,-2.33l-3.42 0 0 4.64zm47.24 -9.79l-6.4 24.2 -6.23 0 -3.39 -13.36 -3.2 13.36 -6.49 0 -6.4 -24.2 6.98 0 3.36 13.9 3.33 -13.9 5.8 0 3.57 13.93 3.38 -13.93 5.68 0zm12.2 24.56c-3.4,0 -6.17,-1.13 -8.32,-3.39 -2.14,-2.26 -3.21,-5.27 -3.21,-9.05 0,-3.61 1.03,-6.6 3.07,-8.95 2.05,-2.35 4.89,-3.53 8.53,-3.53 3.36,0 6.11,1.11 8.23,3.33 2.12,2.22 3.18,5.18 3.18,8.89 0,3.84 -1.07,6.92 -3.21,9.23 -2.14,2.32 -4.89,3.47 -8.27,3.47zm-0.03 -5.48c1.26,0 2.16,-0.55 2.71,-1.65 0.55,-1.09 0.83,-3.1 0.83,-6 0,-4.21 -1.13,-6.32 -3.4,-6.32 -2.44,0 -3.67,2.4 -3.67,7.21 0,4.5 1.18,6.76 3.53,6.76zm36.11 5.11l-8.22 0 -3.56 -9.25 -2.28 0 0 9.25 -7.43 0 0 -24.2 12.62 0c2.78,0 4.95,0.65 6.49,1.96 1.54,1.31 2.31,3.03 2.31,5.17 0,1.4 -0.28,2.63 -0.85,3.7 -0.57,1.07 -1.72,2.01 -3.45,2.83l4.37 10.54zm-14.06 -14.4l3.17 0c0.93,0 1.68,-0.19 2.25,-0.59 0.57,-0.39 0.85,-0.97 0.85,-1.73 0,-1.55 -0.95,-2.33 -2.85,-2.33l-3.42 0 0 4.64zm35.76 8.63l0 5.77 -18.19 0 0 -24.2 18.19 0 0 5.59 -10.9 0 0 3.52 8.8 0 0 5.37 -8.8 0 0 3.95 10.9 0zm14.03 -18.43l0 15.24c0,2.34 -0.21,4.12 -0.63,5.34 -0.42,1.22 -1.23,2.19 -2.45,2.91 -1.21,0.71 -2.85,1.07 -4.93,1.07 -1.83,0 -3.48,-0.19 -4.95,-0.58l0 -5.77c1.03,0.29 2,0.44 2.89,0.44 1.06,0 1.81,-0.25 2.26,-0.74 0.45,-0.49 0.67,-1.38 0.67,-2.67l0 -15.24 7.14 0zm14.4 24.56c-3.4,0 -6.17,-1.13 -8.31,-3.39 -2.14,-2.26 -3.21,-5.27 -3.21,-9.05 0,-3.61 1.03,-6.6 3.08,-8.95 2.05,-2.35 4.89,-3.53 8.53,-3.53 3.36,0 6.11,1.11 8.23,3.33 2.12,2.22 3.18,5.18 3.18,8.89 0,3.84 -1.07,6.92 -3.21,9.23 -2.14,2.32 -4.89,3.47 -8.27,3.47zm-0.03 -5.48c1.26,0 2.16,-0.55 2.71,-1.65 0.55,-1.09 0.83,-3.1 0.83,-6 0,-4.21 -1.14,-6.32 -3.4,-6.32 -2.44,0 -3.66,2.4 -3.66,7.21 0,4.5 1.18,6.76 3.53,6.76z"/>
   </g>
   <path class="fil11" d="M144.09 20.87c-0.78,0.08 -2.15,0.28 -4.09,0.57 -1.89,0.32 -2.94,0.65 -3.14,0.98 0.49,0.2 1.4,0.57 2.71,1.11 1.44,0.6 2.16,0.98 2.16,1.13 0,0.67 -0.31,1.7 -0.91,3.08 -0.61,1.39 -1.17,2.27 -1.68,2.64 -4.15,3.11 -7.88,4.67 -11.21,4.67 -4.01,0 -6.02,-1.88 -6.02,-5.65 0,-1.18 0.3,-2.48 0.89,-3.92 0.65,-1.59 1.43,-2.66 2.31,-3.23l0.31 0.39c-1.03,1.09 -1.55,2.34 -1.55,3.76 0,1.2 0.45,2.19 1.37,2.97 0.87,0.74 1.93,1.11 3.16,1.11 2.59,0 5.54,-0.78 8.85,-2.35l0 -0.33c-2.79,-0.91 -4.19,-1.53 -4.19,-1.87l0 -1.42c0,-0.35 0.62,-1.34 1.87,-2.99 1.57,-2.06 2.66,-3.25 3.29,-3.57 0.19,-0.1 2.14,-0.48 5.87,-1.15l0 4.06zm11.03 -7.45c0,0.69 -0.35,1.59 -1.05,2.73 -0.95,1.56 -2.55,2.71 -4.79,3.46 -0.44,0.14 -2.63,0.57 -6.56,1.27l0 -4.05c2.38,-0.28 4.29,-0.57 5.71,-0.87l0.31 -0.37c-0.15,-0.34 -0.24,-0.6 -0.27,-0.81 0.42,-0.93 0.75,-1.62 0.98,-2.08 0.45,-0.87 0.86,-1.5 1.2,-1.88 0.53,0 1.38,0.32 2.57,0.96 1.26,0.69 1.9,1.23 1.9,1.64zm20.32 -0.86c0.03,0.42 -0.34,1.17 -1.12,2.24 -0.77,1.07 -1.35,1.6 -1.75,1.6 0,-3.49 -0.21,-7 -0.63,-10.54 0.68,-0.87 1.62,-1.89 2.81,-3.06 0.13,1.66 0.31,4.09 0.54,7.29l0.15 2.47zm15.48 8.32c-1.18,0.17 -3.13,0.48 -5.86,0.94l-0.25 -0.22c0,-0.93 -0.09,-2.32 -0.28,-4.16 -0.18,-1.85 -0.27,-3.23 -0.27,-4.17 -0.9,1.59 -1.5,2.59 -1.81,3 -0.36,0.48 -1.15,1.31 -2.34,2.5 -1.06,1.06 -3.52,2.12 -7.37,3.19 -3.53,0.98 -6.18,1.46 -7.94,1.46 -1.02,0 -2.43,-0.17 -4.26,-0.52 -2.06,-0.39 -3.06,-0.79 -2.98,-1.18l8.04 -2.45c1.45,-0.42 4.05,-1.21 7.78,-2.38 5.04,-1.61 7.95,-2.94 8.72,-3.97l1.2 -1.62c0.51,-0.68 0.71,-2.71 0.59,-6.09 0.67,-0.86 1.59,-1.85 2.77,-2.99l0.85 14.83 0.26 0.2c0.68,-0.09 1.72,-0.25 3.14,-0.46l0 4.08zm12.9 -6.74c-0.29,0.93 -0.61,1.65 -0.96,2.14 -1.9,2.73 -3.83,5.36 -5.8,7.87l-0.09 -0.28c0.06,-0.54 0.37,-1.31 0.94,-2.33 0.61,-1.1 0.98,-1.89 1.09,-2.37l-0.31 -0.09c-1.8,0.37 -4.72,0.97 -8.76,1.81l0 -4.08c5.04,-0.87 9.57,-1.92 13.58,-3.16 0.13,0.13 0.24,0.3 0.31,0.5zm20.01 -2.08c0.03,0.42 -0.34,1.17 -1.12,2.24 -0.77,1.07 -1.35,1.6 -1.75,1.6 0,-3.49 -0.21,-7 -0.63,-10.54 0.68,-0.87 1.62,-1.89 2.81,-3.05 0.13,1.65 0.31,4.09 0.54,7.29l0.15 2.46zm11.77 -2.3c0,0.61 -0.53,1.78 -1.61,3.51 -0.34,0.57 -0.68,1.14 -1.02,1.72 -0.42,0.65 -0.86,1.16 -1.29,1.51l-1.64 1.3c-1.37,1.1 -4.04,2.23 -8.02,3.41 -3.89,1.15 -6.84,1.72 -8.82,1.72 -1.02,0 -2.44,-0.17 -4.26,-0.52 -2.06,-0.4 -3.06,-0.78 -2.98,-1.18l19.06 -5.89c3.38,-1.04 5.63,-2 6.73,-2.85 0.51,-0.39 0.77,-0.99 0.77,-1.79 0,-0.86 -0.06,-2.15 -0.18,-3.87 -0.12,-1.72 -0.18,-3.02 -0.18,-3.87l1.27 -1.57c0.62,-0.78 1.11,-1.24 1.46,-1.37l0.46 4.89c0.17,1.86 0.26,3.48 0.26,4.86zm-9.43 18.68c0,0.49 -1.11,1.4 -3.35,2.73 -2.23,1.33 -3.68,2 -4.32,2 -0.37,0 -0.58,-0.1 -0.63,-0.31 0.46,-0.35 1.13,-0.88 2,-1.59l0.09 -0.24c-1.13,-0.51 -1.7,-1.03 -1.7,-1.55 0,-0.81 0.75,-1.69 2.25,-2.64 1.4,-0.87 2.52,-1.3 3.38,-1.3l0.16 0.13c-0.93,1.03 -1.4,1.7 -1.4,1.99 0,0.45 0.47,0.68 1.4,0.68 -0.09,0 0.52,-0.07 1.83,-0.22 0.2,0.07 0.31,0.17 0.31,0.31zm16.76 -11.39c0.03,0.43 -0.34,1.18 -1.09,2.24 -0.76,1.07 -1.33,1.59 -1.73,1.59 0,-3.21 -0.27,-8.45 -0.8,-15.7 0.67,-0.86 1.59,-1.85 2.77,-2.99l0.85 14.85zm23.76 -15.36c-0.04,0.48 -0.36,1.45 -0.94,2.91 -0.25,0.19 -1.12,0.39 -2.6,0.61 -1.29,0.19 -2.24,0.29 -2.83,0.29l-0.48 -0.04 -0.02 -0.27c-0.04,-0.57 0.22,-1.44 0.78,-2.61 0.47,-0.19 1.43,-0.39 2.88,-0.61 1.38,-0.2 2.37,-0.31 2.97,-0.31l0.24 0.02zm2.67 19.19l-4.03 0.59 -0.24 -0.11c-0.07,-0.37 -0.08,-1.15 -0.02,-2.31 0.04,-0.97 -0.04,-1.73 -0.24,-2.26 -0.22,0.38 -0.42,0.64 -0.6,0.8 -2.39,0.59 -3.91,0.89 -4.59,0.89 -1.1,0 -1.87,-0.24 -2.31,-0.71 -0.44,-0.49 -0.65,-1.28 -0.65,-2.4 0,-0.4 0.39,-1.32 1.18,-2.74 0.84,-1.53 1.84,-2.61 2.98,-3.24 1.15,-0.64 2.6,-0.96 4.37,-0.96 0.46,0 0.8,0.05 1.02,0.15 0.34,1.6 0.63,4.4 0.89,8.4l0.13 0.08 2.1 -0.22 0 4.05zm-4.55 -7.32l0 -1.21c-0.22,-0.11 -0.46,-0.17 -0.72,-0.17 -0.89,0 -1.85,0.15 -2.86,0.45 -1.24,0.37 -2.02,0.84 -2.32,1.39 0.09,0.38 0.61,0.57 1.57,0.57 1.39,0 2.75,-0.26 4.09,-0.79l0.24 -0.24zm11.99 1.74l0.09 0.44c0,1.39 -0.48,2.46 -1.42,3.22 -0.81,0.65 -1.89,1.09 -3.23,1.32 -0.78,0.11 -2.15,0.32 -4.1,0.61l0 -4.08c1.58,-0.26 4.47,-0.77 8.66,-1.51zm0.09 11.2c-0.04,0.51 -0.34,1.48 -0.89,2.91 -0.29,0.2 -1.15,0.4 -2.58,0.61 -1.23,0.17 -2.16,0.26 -2.82,0.26 -0.17,0 -0.38,-0.02 -0.61,-0.07l0 -0.17c0,-0.54 0.25,-1.41 0.77,-2.6 0.39,-0.16 1.38,-0.36 2.95,-0.61 1.4,-0.22 2.42,-0.33 3.07,-0.33l0.11 0zm21.81 -5.62c-0.82,0.19 -1.72,0.28 -2.68,0.28l-0.48 -0.09c-0.81,-0.81 -1.69,-1.44 -2.64,-1.9 -0.42,0.96 -1.12,1.8 -2.09,2.5 -1.02,0.73 -2.04,1.1 -3.05,1.1 -5.18,0 -8.33,-0.28 -9.46,-0.86 0.09,-0.31 0.25,-0.53 0.48,-0.68l1.87 -1.14c0.82,-0.49 2.76,-0.95 5.83,-1.38 2.92,-0.41 4.79,-0.93 5.62,-1.57 0.44,-0.34 0.71,-1.2 0.81,-2.59 0.13,-0.22 0.68,-0.74 1.66,-1.58 0.16,0.42 0.45,1.18 0.87,2.26 0.46,1.15 0.97,1.72 1.53,1.72 0.64,0 1.22,-0.04 1.74,-0.13l0 4.05zm14 0.01c-1.21,0.2 -2.69,0.4 -4.47,0.6 -0.34,0.57 -0.9,1.34 -1.7,2.31l-0.26 0.04c-1.4,-0.23 -2.98,-1.44 -4.75,-3.63l-4.34 0.68 0 -4.07c2.34,-0.19 4.1,-0.63 5.28,-1.3 0.44,-0.55 0.86,-0.87 1.26,-0.94 1.41,0.98 2.34,1.59 2.79,1.83 1.03,0.53 2.1,0.79 3.21,0.79 0.46,0 1.46,-0.13 2.98,-0.37l0 4.05zm19.61 0.01c-1.34,0.1 -3.38,0.32 -6.12,0.65 -0.19,0.03 -0.37,0 -0.54,-0.09 -0.22,-0.1 -0.31,-0.25 -0.27,-0.43 0.31,-1.36 0.46,-2.29 0.46,-2.79l-0.51 -0.02 -9.78 1.86c-0.59,0.9 -1.48,2.23 -2.69,4l-0.09 0c-0.02,-0.15 0.17,-0.76 0.56,-1.84l0.72 -1.97c-0.71,0.17 -1.67,0.39 -2.86,0.63l0 -4.05c0.41,-0.06 2.03,-0.39 4.88,-0.98 0.76,-1.53 1.73,-2.97 2.9,-4.35 1.56,-1.82 2.92,-2.74 4.1,-2.74 1.12,0 2.34,0.91 3.66,2.72 1.28,1.74 2.3,2.56 3.05,2.46 -0.1,0.43 -0.47,1.4 -1.11,2.94l0.37 0.1c1.52,0 2.6,-0.05 3.25,-0.17l0 4.06zm-8.5 -6.49c0,-0.22 -0.06,-0.42 -0.18,-0.62 -0.95,-0.88 -1.7,-1.32 -2.27,-1.32 -1.23,0 -2.52,1.04 -3.86,3.14 0.85,-0.22 2.95,-0.62 6.31,-1.2zm19.55 -0.97c0,0.69 -0.35,1.59 -1.05,2.73 -0.95,1.56 -2.55,2.71 -4.79,3.46 -0.44,0.14 -2.63,0.57 -6.56,1.27l0 -4.05c2.38,-0.28 4.29,-0.57 5.71,-0.87l0.31 -0.37c-0.15,-0.34 -0.24,-0.6 -0.27,-0.81 0.42,-0.93 0.75,-1.62 0.98,-2.08 0.45,-0.87 0.86,-1.5 1.2,-1.88 0.53,0 1.38,0.32 2.58,0.96 1.26,0.69 1.9,1.23 1.9,1.64zm32.8 7.44c-0.83,0.19 -1.72,0.28 -2.68,0.28l-0.48 -0.09c-0.81,-0.81 -1.69,-1.44 -2.63,-1.9 -0.42,0.96 -1.12,1.8 -2.09,2.5 -1.02,0.73 -2.04,1.1 -3.05,1.1 -5.18,0 -8.33,-0.28 -9.46,-0.86 0.09,-0.31 0.24,-0.53 0.48,-0.68l1.87 -1.14c0.82,-0.49 2.76,-0.95 5.82,-1.38 2.92,-0.41 4.79,-0.93 5.62,-1.57 0.44,-0.34 0.71,-1.2 0.81,-2.59 0.13,-0.22 0.68,-0.74 1.66,-1.58 0.16,0.42 0.45,1.18 0.87,2.26 0.46,1.15 0.98,1.72 1.53,1.72 0.64,0 1.22,-0.04 1.74,-0.13l0 4.05zm21.24 0.02l-4.75 0.69c-2.15,0.32 -4.97,1.74 -8.46,4.24 -1.39,1.03 -3.91,2.88 -7.56,5.56l-0.16 -0.26 -0.02 -0.37c-0.08,-1.45 0.21,-2.94 0.88,-4.47 0.28,-0.62 0.93,-1.8 1.96,-3.55 0.73,-1.22 1.09,-2.14 1.09,-2.75 -0.99,0.13 -2.87,0.43 -5.65,0.89l0 -4.08c4.07,-0.73 7.4,-1.51 10.01,-2.36l0.22 0.26c-0.16,0.95 -1.15,2.8 -2.98,5.56 -1.78,2.67 -2.66,4.17 -2.64,4.52l0.16 0.18c0.45,-0.1 1.87,-1.02 4.25,-2.75 2.66,-1.94 4.31,-3.06 4.95,-3.38 1.3,-0.65 2.61,-1.09 3.94,-1.31 0.91,-0.13 2.51,-0.37 4.78,-0.7l0 4.07zm11.15 -0.34l-5.86 1.01c-0.09,0.02 -0.17,0.04 -0.26,0.04 -0.6,0 -1.17,-0.5 -1.73,-1.5l-0.28 0c-0.36,0 -1.88,0.26 -4.55,0.78l0 -4.04c0.13,-0.01 0.88,-0.16 2.25,-0.43 0.72,-0.13 1.16,-0.35 1.35,-0.65 -0.1,-0.38 -0.19,-0.88 -0.26,-1.49 0.57,-1.47 1.09,-2.53 1.57,-3.18 0.51,-0.14 1.01,-0.22 1.5,-0.22 2.17,0 3.25,0.86 3.25,2.6 0,0.69 -0.17,1.32 -0.51,1.87 -0.18,0.31 -0.53,0.86 -1.04,1.64 0.07,0.15 0.18,0.22 0.34,0.22 0.37,0 1.77,-0.24 4.23,-0.72l0 4.08zm11.17 -7.12c0,0.69 -0.35,1.59 -1.05,2.73 -0.95,1.56 -2.55,2.71 -4.79,3.46 -0.44,0.14 -2.63,0.57 -6.56,1.27l0 -4.05c2.38,-0.28 4.28,-0.57 5.71,-0.87l0.3 -0.37c-0.15,-0.34 -0.24,-0.6 -0.27,-0.81 0.42,-0.93 0.75,-1.62 0.98,-2.08 0.45,-0.87 0.86,-1.5 1.2,-1.88 0.53,0 1.38,0.32 2.57,0.96 1.26,0.69 1.9,1.23 1.9,1.64z"/>
  </g>
 </g>
</svg>
